<svg width="1440" height="220" viewBox="0 0 1440 220" fill="none" xmlns="http://www.w3.org/2000/svg">
<path d="M467.585 152.821H454.558C451.797 152.821 449.364 154.625 448.574 157.264L404.51 303.049C403.296 307.069 406.302 311.117 410.494 311.117H423.527C426.281 311.117 428.715 309.308 429.517 306.668L473.574 160.883C474.788 156.869 471.776 152.821 467.585 152.821ZM413.781 128.221H530.814C535.005 128.221 538.012 132.269 536.798 136.283L530.539 156.967L487.678 298.662C487.272 300.008 486.418 301.182 485.267 301.984L438.472 334.595C437.425 335.328 436.176 335.717 434.899 335.717H359.25C354.125 335.717 349.996 333.896 346.876 330.231C343.755 326.584 342.856 322.581 344.196 318.229L398.389 138.591C399.276 135.43 401.126 132.911 403.915 131.032C406.698 129.154 409.984 128.221 413.781 128.221Z" fill="#FAA551"/>
<path d="M564.048 311.115H577.086C579.846 311.115 582.28 309.311 583.076 306.671L627.139 160.881C628.348 156.867 625.341 152.818 621.15 152.818H608.111C605.362 152.818 602.929 154.622 602.127 157.256L579.72 231.079L558.064 303.058C556.855 307.072 559.862 311.115 564.048 311.115ZM512.815 335.72C507.684 335.72 503.561 333.899 500.441 330.235C497.32 326.581 496.415 322.579 497.761 318.227C505.571 291.949 511.429 272.331 515.317 259.384C519.223 246.448 521.347 239.582 521.685 238.786C522.017 238.002 522.292 237.16 522.515 236.267C522.733 235.379 523.128 233.999 523.683 232.115C524.239 230.237 526.861 221.591 531.551 206.176C536.235 190.766 543.038 168.233 551.954 138.589C552.841 135.428 554.685 132.908 557.48 131.036C560.263 129.158 563.549 128.218 567.34 128.218H684.35C688.553 128.218 691.56 132.284 690.334 136.298L661.354 231.079L637.109 311.578C636.571 313.354 636.851 315.272 637.87 316.824L643.929 326.026C646.672 330.189 643.688 335.72 638.706 335.72H512.815Z" fill="#FAA551"/>
<path d="M731.925 128.218H766.992C771.184 128.218 774.196 132.273 772.976 136.287L750.272 211.203C748.726 216.322 753.902 220.903 758.792 218.733L773.801 212.085C775.467 211.346 776.727 209.92 777.26 208.18L800.17 132.656C800.972 130.016 803.4 128.218 806.154 128.218H848.952C853.149 128.218 856.156 132.273 854.936 136.287L833.125 208.18C832.598 209.92 831.338 211.346 829.672 212.085L795.755 227.111C791.134 229.155 790.728 235.563 795.051 238.179L815.419 250.502C817.864 251.98 818.998 254.929 818.168 257.666L796.929 327.681C795.71 331.689 790.98 333.395 787.481 331.076L751.864 307.461C749.562 305.938 748.531 303.081 749.333 300.435L762.314 257.62C763.133 254.906 762.028 251.98 759.617 250.491L755.506 247.948C753.736 246.855 751.537 246.712 749.642 247.571L740.211 251.842C738.562 252.587 737.319 254.013 736.804 255.742L720.043 311.619C719.522 313.371 719.785 315.26 720.776 316.801L726.743 326.089C729.417 330.252 726.428 335.72 721.48 335.72H677.4C672.275 335.72 668.146 333.894 665.019 330.235C661.899 326.581 661.005 322.487 662.345 317.935C662.569 317.144 680.629 257.362 716.538 138.589C717.426 135.428 719.27 132.908 722.059 131.036C724.847 129.158 728.134 128.218 731.925 128.218Z" fill="#FAA551"/>
<path d="M876.736 152.821H861.825C857.616 152.821 854.61 148.755 855.841 144.735L857.725 138.591C858.606 135.43 860.445 132.911 863.245 131.032C866.022 129.154 869.315 128.221 873.105 128.221H971.648C975.868 128.221 978.88 132.309 977.615 136.341L973.836 148.434C973.017 151.04 970.606 152.821 967.869 152.821H945.657C942.903 152.821 940.475 154.625 939.673 157.264L893.015 311.615C892.483 313.367 892.752 315.263 893.743 316.803L899.704 326.091C902.384 330.248 899.389 335.717 894.441 335.717H850.361C845.23 335.717 841.101 333.896 837.975 330.231C834.86 326.584 833.966 322.581 835.306 318.229L882.72 160.878C883.934 156.863 880.922 152.821 876.736 152.821Z" fill="#FAA551"/>
<path d="M996.26 311.115H1009.3C1012.06 311.115 1014.49 309.311 1015.28 306.671L1059.35 160.881C1060.56 156.867 1057.55 152.818 1053.36 152.818H1040.32C1037.57 152.818 1035.14 154.622 1034.34 157.256L1011.93 231.079L990.27 303.058C989.062 307.072 992.068 311.115 996.26 311.115ZM945.027 335.72C939.896 335.72 935.773 333.899 932.653 330.235C929.526 326.581 928.627 322.579 929.973 318.227C937.778 291.949 943.635 272.331 947.529 259.384C951.435 246.448 953.559 239.582 953.897 238.786C954.229 238.002 954.498 237.16 954.727 236.267C954.945 235.379 955.34 233.999 955.895 232.115C956.451 230.237 959.073 221.591 963.758 206.176C968.442 190.766 975.244 168.233 984.166 138.589C985.053 135.428 986.897 132.908 989.686 131.036C992.475 129.158 995.761 128.218 999.552 128.218H1116.56C1120.76 128.218 1123.77 132.284 1122.54 136.298L1093.57 231.079L1069.32 311.578C1068.78 313.354 1069.06 315.272 1070.08 316.824L1076.14 326.026C1078.88 330.189 1075.89 335.72 1070.92 335.72H945.027Z" fill="#FAA551"/>
<path d="M1217.94 152.821H1204.93C1202.17 152.821 1199.74 154.619 1198.94 157.253L1182.52 211.188C1180.96 216.308 1186.14 220.894 1191.04 218.724L1206.04 212.082C1207.7 211.343 1208.96 209.923 1209.48 208.188L1223.92 160.9C1225.15 156.881 1222.13 152.821 1217.94 152.821ZM1148.76 138.591C1149.65 135.43 1151.5 132.911 1154.29 131.032C1157.07 129.154 1160.36 128.221 1164.15 128.221H1280.87C1285.07 128.221 1288.07 132.252 1286.87 136.266L1265.34 208.165C1264.82 209.917 1263.56 211.349 1261.89 212.087L1227.99 227.113C1223.36 229.157 1222.95 235.559 1227.28 238.182L1247.64 250.505C1250.09 251.982 1251.22 254.931 1250.39 257.668L1229.25 327.362C1228 331.462 1223.1 333.123 1219.61 330.626L1184.51 305.425C1182.34 303.868 1181.4 301.102 1182.18 298.536L1194.55 257.617C1195.36 254.908 1194.25 251.976 1191.84 250.488L1187.74 247.951C1185.96 246.857 1183.76 246.714 1181.87 247.573L1172.44 251.839C1170.79 252.589 1169.55 254.009 1169.03 255.744L1152.27 311.621C1151.74 313.373 1152.01 315.263 1153 316.797L1158.97 326.091C1161.64 330.248 1158.65 335.717 1153.71 335.717H1109.62C1104.49 335.717 1100.37 333.896 1097.25 330.231C1094.13 326.584 1093.23 322.484 1094.57 317.937C1111.88 260.365 1120.91 230.28 1121.63 227.703C1121.66 227.583 1121.69 227.479 1121.73 227.359C1122.56 224.931 1131.57 195.35 1148.76 138.591Z" fill="#FAA551"/>
<path d="M1262.5 335.719C1257.37 335.719 1253.25 333.898 1250.13 330.233C1247 326.58 1246.11 322.583 1247.45 318.225L1259.92 276.544C1261.07 272.696 1265.49 270.915 1268.99 272.896L1305.38 293.568C1307.9 294.994 1309.11 297.954 1308.31 300.737L1307.62 303.131C1306.47 307.128 1309.47 311.113 1313.63 311.113H1326.77C1329.53 311.113 1331.96 309.304 1332.76 306.664L1349.06 252.471C1350.27 248.463 1347.27 244.42 1343.07 244.42H1277.96C1273.76 244.42 1270.75 240.366 1271.97 236.346L1301.64 138.587C1302.53 135.427 1304.37 132.913 1307.16 131.034C1309.95 129.156 1313.23 128.217 1317.03 128.217H1433.74C1437.93 128.217 1440.94 132.26 1439.73 136.274L1424.44 187.066C1423.25 191.011 1418.63 192.752 1415.13 190.559L1379.34 168.129C1376.92 166.623 1375.84 163.668 1376.69 160.954C1377.96 156.923 1374.96 152.823 1370.73 152.823H1357.79C1355.04 152.823 1352.61 154.615 1351.81 157.243L1335.22 211.437C1333.99 215.456 1337 219.522 1341.21 219.522H1406.29C1410.48 219.522 1413.49 223.576 1412.27 227.59L1386.8 311.571C1386.26 313.352 1386.54 315.276 1387.56 316.828L1393.61 326.03C1396.36 330.187 1393.37 335.719 1388.39 335.719H1262.5Z" fill="#FAA551"/>
<path d="M206.465 255.896C185.776 253.502 164.996 242.886 151.992 235.007C147.056 232.017 148.842 224.424 154.591 223.949C170.424 222.649 195.734 222.821 219.773 232.659C259.25 248.818 228.013 258.387 206.465 255.896ZM367.825 226.652C367.779 226.417 367.728 226.177 367.659 225.953C335.764 111.778 196.593 161.241 185.593 165.238C174.587 169.246 178.59 165.238 178.59 165.238L261.632 82.2018C262.623 81.2112 263.235 79.8998 263.361 78.5026L266.345 44.9068C266.728 40.5663 262.491 37.2909 258.385 38.7511L27.8925 120.711C24.7946 121.81 23.1684 125.217 24.2621 128.321L31.6776 149.405C32.7713 152.526 36.1898 154.158 39.3049 153.064L71.6754 141.623C77.5906 139.533 82.3204 146.805 78.0086 151.369L45.3919 185.864C43.8974 187.444 43.382 189.718 44.0462 191.791L49.3258 208.322C50.1046 210.773 52.3722 212.445 54.9433 212.48C62.7481 212.594 78.5755 213.064 79.841 215.119C80.5453 216.276 75.3115 219.105 74.2006 219.683C74.0632 219.758 73.9258 219.838 73.7883 219.918L15.4265 256.577C14.1495 257.379 13.2276 258.633 12.8382 260.082L0.217566 306.825C-1.17391 311.984 4.38627 316.239 9.00735 313.542L14.4473 310.37C65.491 277.341 112.532 290.855 182.094 316.875C244.997 340.404 269.431 335.703 273.537 334.592C274.006 334.46 274.465 334.391 274.951 334.385C284.858 334.225 386.098 330.045 367.825 226.652Z" fill="#FAA551"/>
<path d="M60.5198 44.1675L76.4273 75.7306C77.7844 78.4162 80.9224 79.6759 83.7683 78.6681L169.599 48.2331C172.548 47.191 174.197 44.0473 173.367 41.0295L163.913 6.3743C162.476 1.09471 155.278 0.373199 152.81 5.26341L143.917 22.8888C142.205 26.2902 137.784 27.2407 134.824 24.8414L105.786 1.34093C102.035 -1.6997 96.4119 0.739679 96.0626 5.55545L93.7893 37.2903C93.5029 41.2586 89.4889 43.8468 85.7496 42.4668L67.9295 35.8702C62.8389 33.992 58.0747 39.3231 60.5198 44.1675Z" fill="#FAA551"/>
<path d="M206.465 255.896C185.776 253.502 164.996 242.886 151.992 235.007C147.056 232.017 148.842 224.424 154.591 223.949C170.424 222.649 195.734 222.821 219.773 232.659C259.25 248.818 228.013 258.387 206.465 255.896ZM367.825 226.652C367.779 226.417 367.728 226.177 367.659 225.953C335.764 111.778 196.593 161.241 185.593 165.238C174.587 169.246 178.59 165.238 178.59 165.238L261.632 82.2018C262.623 81.2112 263.235 79.8998 263.361 78.5026L266.345 44.9068C266.728 40.5663 262.491 37.2909 258.385 38.7511L27.8925 120.711C24.7946 121.81 23.1684 125.217 24.2621 128.321L31.6776 149.405C32.7713 152.526 36.1898 154.158 39.3049 153.064L71.6754 141.623C77.5906 139.533 82.3204 146.805 78.0086 151.369L45.3919 185.864C43.8974 187.444 43.382 189.718 44.0462 191.791L49.3258 208.322C50.1046 210.773 52.3722 212.445 54.9433 212.48C62.7481 212.594 78.5755 213.064 79.841 215.119C80.5453 216.276 75.3115 219.105 74.2006 219.683C74.0632 219.758 73.9258 219.838 73.7883 219.918L15.4265 256.577C14.1495 257.379 13.2276 258.633 12.8382 260.082L0.217566 306.825C-1.17391 311.984 4.38627 316.239 9.00735 313.542L14.4473 310.37C65.491 277.341 112.532 290.855 182.094 316.875C244.997 340.404 269.431 335.703 273.537 334.592C274.006 334.46 274.465 334.391 274.951 334.385C284.858 334.225 386.098 330.045 367.825 226.652Z" fill="#FAA551"/>
<path d="M60.5198 44.1675L76.4273 75.7306C77.7844 78.4162 80.9224 79.6759 83.7683 78.6681L169.599 48.2331C172.548 47.191 174.197 44.0473 173.367 41.0295L163.913 6.3743C162.476 1.09471 155.278 0.373199 152.81 5.26341L143.917 22.8888C142.205 26.2902 137.784 27.2407 134.824 24.8414L105.786 1.34093C102.035 -1.6997 96.4119 0.739679 96.0626 5.55545L93.7893 37.2903C93.5029 41.2586 89.4889 43.8468 85.7496 42.4668L67.9295 35.8702C62.8389 33.992 58.0747 39.3231 60.5198 44.1675Z" fill="#FAA551"/>
<path d="M206.465 255.896C185.776 253.502 164.996 242.886 151.992 235.007C147.056 232.017 148.842 224.424 154.591 223.949C170.424 222.649 195.734 222.821 219.773 232.659C259.25 248.818 228.013 258.387 206.465 255.896ZM367.825 226.652C367.779 226.417 367.728 226.177 367.659 225.953C335.764 111.778 196.593 161.241 185.593 165.238C174.587 169.246 178.59 165.238 178.59 165.238L261.632 82.2018C262.623 81.2112 263.235 79.8998 263.361 78.5026L266.345 44.9068C266.728 40.5663 262.491 37.2909 258.385 38.7511L27.8925 120.711C24.7946 121.81 23.1684 125.217 24.2621 128.321L31.6776 149.405C32.7713 152.526 36.1898 154.158 39.3049 153.064L71.6754 141.623C77.5906 139.533 82.3204 146.805 78.0086 151.369L45.3919 185.864C43.8974 187.444 43.382 189.718 44.0462 191.791L49.3258 208.322C50.1046 210.773 52.3722 212.445 54.9433 212.48C62.7481 212.594 78.5755 213.064 79.841 215.119C80.5453 216.276 75.3115 219.105 74.2006 219.683C74.0632 219.758 73.9258 219.838 73.7883 219.918L15.4265 256.577C14.1495 257.379 13.2276 258.633 12.8382 260.082L0.217566 306.825C-1.17391 311.984 4.38627 316.239 9.00735 313.542L14.4473 310.37C65.491 277.341 112.532 290.855 182.094 316.875C244.997 340.404 269.431 335.703 273.537 334.592C274.006 334.46 274.465 334.391 274.951 334.385C284.858 334.225 386.098 330.045 367.825 226.652Z" fill="#FAA551"/>
<path d="M60.5198 44.1675L76.4273 75.7306C77.7844 78.4162 80.9224 79.6759 83.7683 78.6681L169.599 48.2331C172.548 47.191 174.197 44.0473 173.367 41.0295L163.913 6.3743C162.476 1.09471 155.278 0.373199 152.81 5.26341L143.917 22.8888C142.205 26.2902 137.784 27.2407 134.824 24.8414L105.786 1.34093C102.035 -1.6997 96.4119 0.739679 96.0626 5.55545L93.7893 37.2903C93.5029 41.2586 89.4889 43.8468 85.7496 42.4668L67.9295 35.8702C62.8389 33.992 58.0747 39.3231 60.5198 44.1675Z" fill="#FAA551"/>
</svg>
