<svg width="1440" height="246" viewBox="0 0 1440 246" fill="none" xmlns="http://www.w3.org/2000/svg">
<g clip-path="url(#clip0_2362_20635)">
<path d="M435.992 163.45H554.324C556.087 163.45 557.351 165.134 556.838 166.799L549.421 190.874L507.435 327.138C507.262 327.696 506.904 328.181 506.419 328.514L459.092 360.903C458.653 361.205 458.131 361.363 457.597 361.363H383.019C378.036 361.363 374.03 359.625 370.99 356.132C367.96 352.646 367.089 348.827 368.389 344.682L421.042 173.342C421.903 170.328 423.692 167.928 426.404 166.131C429.113 164.347 432.307 163.45 435.992 163.45ZM492.901 186.918H473.042C471.887 186.918 470.864 187.665 470.528 188.757L425.647 334.55C425.134 336.215 426.398 337.899 428.162 337.899H448.021C449.176 337.899 450.199 337.152 450.535 336.06L495.416 190.267C495.929 188.598 494.665 186.918 492.901 186.918Z" fill="#FAA551"/>
<path d="M532.198 361.366C527.216 361.366 523.209 359.628 520.17 356.136C517.139 352.649 516.268 348.83 517.569 344.685C525.155 319.616 530.845 300.907 534.633 288.563C538.42 276.219 540.483 269.668 540.808 268.914C541.129 268.161 541.401 267.356 541.62 266.511C541.833 265.663 542.213 264.345 542.757 262.552C543.297 260.761 545.846 252.514 550.396 237.812C554.946 223.11 561.55 201.622 570.221 173.348C571.083 170.334 572.872 167.934 575.584 166.137C578.29 164.35 581.484 163.453 585.172 163.453H703.494C705.261 163.453 706.524 165.14 706.005 166.808L676.502 261.563L652.482 339.845C652.256 340.583 652.374 341.385 652.806 342.029L663.074 357.343C664.229 359.067 662.978 361.37 660.884 361.37H532.198V361.366ZM577.338 337.899H597.204C598.359 337.899 599.382 337.152 599.718 336.06L644.599 190.267C645.111 188.601 643.848 186.918 642.084 186.918H622.222C621.066 186.918 620.047 187.662 619.71 188.754L597.201 261.563L574.827 334.556C574.311 336.218 575.574 337.899 577.338 337.899Z" fill="#FAA551"/>
<path d="M730.121 173.348C730.983 170.334 732.772 167.934 735.484 166.137C738.19 164.35 741.384 163.453 745.072 163.453H863.394C865.161 163.453 866.424 165.14 865.905 166.808L837.462 258.153C836.937 259.837 834.904 260.526 833.443 259.514L793.44 231.825C792.507 231.178 792.102 230.013 792.436 228.939L804.48 190.273C804.999 188.604 803.736 186.918 801.969 186.918H782.119C780.963 186.918 779.944 187.662 779.607 188.754L757.098 261.563L742.474 308.779L734.702 334.565C734.202 336.227 735.462 337.899 737.22 337.899H757.092C758.253 337.899 759.279 337.145 759.609 336.044L767.267 310.634C767.597 309.533 768.623 308.779 769.784 308.779H818.541C820.308 308.779 821.572 310.469 821.053 312.137L812.394 339.839C812.163 340.58 812.28 341.388 812.715 342.035L822.98 357.34C824.136 359.064 822.885 361.366 820.79 361.366H692.105C687.122 361.366 683.116 359.628 680.076 356.136C677.046 352.649 676.175 348.83 677.475 344.685L730.121 173.348Z" fill="#FAA551"/>
<path d="M896.238 186.918H872.458C870.692 186.918 869.428 185.228 869.947 183.563L873.129 173.348C873.991 170.334 875.776 167.934 878.488 166.137C881.197 164.35 884.391 163.453 888.077 163.453H988.498C990.271 163.453 991.537 165.155 991.003 166.827L985.18 185.106C984.837 186.186 983.821 186.921 982.675 186.921H956.001C954.846 186.921 953.823 187.668 953.487 188.76L906.957 339.863C906.731 340.592 906.845 341.385 907.262 342.026L917.305 357.368C918.435 359.094 917.181 361.37 915.099 361.37H865.978C860.992 361.37 856.986 359.631 853.952 356.139C850.916 352.652 850.051 348.834 851.351 344.688L898.749 190.264C899.262 188.598 897.998 186.918 896.238 186.918Z" fill="#FAA551"/>
<path d="M957.956 361.366C952.974 361.366 948.967 359.628 945.928 356.136C942.897 352.649 942.026 348.83 943.327 344.685C950.913 319.616 956.603 300.907 960.39 288.563C964.178 276.219 966.241 269.668 966.565 268.914C966.887 268.161 967.158 267.356 967.378 266.511C967.591 265.663 967.971 264.345 968.514 262.552C969.055 260.761 971.604 252.514 976.154 237.812C980.704 223.11 987.308 201.622 995.979 173.348C996.841 170.334 998.629 167.934 1001.34 166.137C1004.05 164.35 1007.24 163.453 1010.93 163.453H1129.25C1131.02 163.453 1132.28 165.14 1131.76 166.808L1102.26 261.563L1078.24 339.845C1078.01 340.583 1078.13 341.385 1078.56 342.029L1088.83 357.343C1089.99 359.067 1088.74 361.37 1086.64 361.37H957.956V361.366ZM1003.1 337.899H1022.96C1024.12 337.899 1025.14 337.152 1025.48 336.06L1070.36 190.267C1070.87 188.601 1069.61 186.918 1067.84 186.918H1047.98C1046.82 186.918 1045.8 187.662 1045.47 188.754L1022.96 261.563L1000.58 334.556C1000.07 336.218 1001.33 337.899 1003.1 337.899Z" fill="#FAA551"/>
<path d="M1155.87 173.348C1156.73 170.334 1158.52 167.934 1161.24 166.137C1163.94 164.35 1167.14 163.453 1170.82 163.453H1288.84C1290.6 163.453 1291.87 165.131 1291.36 166.796L1268.67 241.195C1268.45 241.921 1267.92 242.515 1267.22 242.82L1226.81 260.395C1224.86 261.243 1224.69 263.909 1226.52 264.992L1254.22 281.444C1255.25 282.057 1255.73 283.286 1255.38 284.424L1232.66 357.923C1232.14 359.619 1230.09 360.308 1228.63 359.277L1188.61 331.073C1187.69 330.426 1187.29 329.273 1187.62 328.209L1201.11 284.409C1201.46 283.28 1200.99 282.06 1199.97 281.444L1192.16 276.707C1191.42 276.259 1190.5 276.201 1189.71 276.552L1177.44 282.005C1176.75 282.313 1176.22 282.902 1176 283.622L1158.82 339.869C1158.6 340.598 1158.71 341.388 1159.13 342.026L1169.18 357.371C1170.31 359.097 1169.05 361.373 1166.97 361.373H1117.85C1112.86 361.373 1108.86 359.634 1105.82 356.142C1102.79 352.655 1101.92 348.745 1103.22 344.408C1120.14 289.155 1128.91 260.45 1129.51 258.3C1129.54 258.214 1129.56 258.141 1129.59 258.059C1130.3 256.043 1139.07 227.805 1155.87 173.348ZM1227.72 186.918H1207.87C1206.71 186.918 1205.7 187.662 1205.36 188.751L1186.48 249.64C1185.82 251.763 1188 253.67 1190.05 252.773L1212.95 242.814C1213.65 242.509 1214.18 241.921 1214.4 241.201L1230.23 190.273C1230.75 188.604 1229.49 186.918 1227.72 186.918Z" fill="#FAA551"/>
<path d="M1266.38 361.366C1261.4 361.366 1257.39 359.628 1254.36 356.136C1251.33 352.649 1250.46 348.83 1251.76 344.685L1265.11 300.858C1265.6 299.266 1267.45 298.528 1268.92 299.345L1310.4 322.468C1311.46 323.06 1311.97 324.292 1311.63 325.448L1308.96 334.583C1308.47 336.243 1309.73 337.899 1311.48 337.899H1331.39C1332.54 337.899 1333.56 337.152 1333.9 336.057L1351.81 277.628C1352.32 275.963 1351.06 274.282 1349.3 274.282H1276.76C1274.99 274.282 1273.73 272.599 1274.24 270.93L1304.41 173.345C1305.27 170.331 1307.06 167.931 1309.77 166.134C1312.48 164.347 1315.67 163.45 1319.36 163.45H1437.37C1439.13 163.45 1440.39 165.131 1439.88 166.796L1422.4 223.824C1421.9 225.459 1419.97 226.176 1418.5 225.273L1377.64 200.137C1376.62 199.512 1376.16 198.282 1376.52 197.151L1378.72 190.288C1379.26 188.617 1378 186.912 1376.22 186.912H1356.39C1355.24 186.912 1354.22 187.653 1353.88 188.742L1335.67 247.173C1335.15 248.841 1336.42 250.528 1338.18 250.528H1410.71C1412.47 250.528 1413.73 252.212 1413.22 253.877L1386.66 339.833C1386.43 340.574 1386.55 341.376 1386.98 342.023L1397.25 357.334C1398.41 359.058 1397.16 361.36 1395.06 361.36H1266.38V361.366Z" fill="#FAA551"/>
<path d="M435.992 163.45H554.324C556.087 163.45 557.351 165.134 556.838 166.799L549.421 190.874L507.435 327.138C507.262 327.696 506.904 328.181 506.419 328.514L459.092 360.903C458.653 361.205 458.131 361.363 457.597 361.363H383.019C378.036 361.363 374.03 359.625 370.99 356.132C367.96 352.646 367.089 348.827 368.389 344.682L421.042 173.342C421.903 170.328 423.692 167.928 426.404 166.131C429.113 164.347 432.307 163.45 435.992 163.45ZM492.901 186.918H473.042C471.887 186.918 470.864 187.665 470.528 188.757L425.647 334.55C425.134 336.215 426.398 337.899 428.162 337.899H448.021C449.176 337.899 450.199 337.152 450.535 336.06L495.416 190.267C495.929 188.598 494.665 186.918 492.901 186.918Z" fill="#FAA551"/>
<path d="M532.198 361.366C527.216 361.366 523.209 359.628 520.17 356.136C517.139 352.649 516.268 348.83 517.569 344.685C525.155 319.616 530.845 300.907 534.633 288.563C538.42 276.219 540.483 269.668 540.808 268.914C541.129 268.161 541.401 267.356 541.62 266.511C541.833 265.663 542.213 264.345 542.757 262.552C543.297 260.761 545.846 252.514 550.396 237.812C554.946 223.11 561.55 201.622 570.221 173.348C571.083 170.334 572.872 167.934 575.584 166.137C578.29 164.35 581.484 163.453 585.172 163.453H703.494C705.261 163.453 706.524 165.14 706.005 166.808L676.502 261.563L652.482 339.845C652.256 340.583 652.374 341.385 652.806 342.029L663.074 357.343C664.229 359.067 662.978 361.37 660.884 361.37H532.198V361.366ZM577.338 337.899H597.204C598.359 337.899 599.382 337.152 599.718 336.06L644.599 190.267C645.111 188.601 643.848 186.918 642.084 186.918H622.222C621.066 186.918 620.047 187.662 619.71 188.754L597.201 261.563L574.827 334.556C574.311 336.218 575.574 337.899 577.338 337.899Z" fill="#FAA551"/>
<path d="M730.121 173.348C730.983 170.334 732.772 167.934 735.484 166.137C738.19 164.35 741.384 163.453 745.072 163.453H863.394C865.161 163.453 866.424 165.14 865.905 166.808L837.462 258.153C836.937 259.837 834.904 260.526 833.443 259.514L793.44 231.825C792.507 231.178 792.102 230.013 792.436 228.939L804.48 190.273C804.999 188.604 803.736 186.918 801.969 186.918H782.119C780.963 186.918 779.944 187.662 779.607 188.754L757.098 261.563L742.474 308.779L734.702 334.565C734.202 336.227 735.462 337.899 737.22 337.899H757.092C758.253 337.899 759.279 337.145 759.609 336.044L767.267 310.634C767.597 309.533 768.623 308.779 769.784 308.779H818.541C820.308 308.779 821.572 310.469 821.053 312.137L812.394 339.839C812.163 340.58 812.28 341.388 812.715 342.035L822.98 357.34C824.136 359.064 822.885 361.366 820.79 361.366H692.105C687.122 361.366 683.116 359.628 680.076 356.136C677.046 352.649 676.175 348.83 677.475 344.685L730.121 173.348Z" fill="#FAA551"/>
<path d="M896.238 186.918H872.458C870.692 186.918 869.428 185.228 869.947 183.563L873.129 173.348C873.991 170.334 875.776 167.934 878.488 166.137C881.197 164.35 884.391 163.453 888.077 163.453H988.498C990.271 163.453 991.537 165.155 991.003 166.827L985.18 185.106C984.837 186.186 983.821 186.921 982.675 186.921H956.001C954.846 186.921 953.823 187.668 953.487 188.76L906.957 339.863C906.731 340.592 906.845 341.385 907.262 342.026L917.305 357.368C918.435 359.094 917.181 361.37 915.099 361.37H865.978C860.992 361.37 856.986 359.631 853.952 356.139C850.916 352.652 850.051 348.834 851.351 344.688L898.749 190.264C899.262 188.598 897.998 186.918 896.238 186.918Z" fill="#FAA551"/>
<path d="M957.948 361.366C952.966 361.366 948.959 359.628 945.92 356.136C942.889 352.649 942.018 348.83 943.319 344.685C950.905 319.616 956.595 300.907 960.383 288.563C964.17 276.219 966.233 269.668 966.558 268.914C966.879 268.161 967.151 267.356 967.37 266.511C967.583 265.663 967.963 264.345 968.507 262.552C969.047 260.761 971.596 252.514 976.146 237.812C980.696 223.11 987.3 201.622 995.971 173.348C996.833 170.334 998.622 167.934 1001.33 166.137C1004.04 164.35 1007.23 163.453 1010.92 163.453H1129.24C1131.01 163.453 1132.27 165.14 1131.76 166.808L1102.25 261.563L1078.23 339.845C1078.01 340.583 1078.12 341.385 1078.56 342.029L1088.82 357.343C1089.98 359.067 1088.73 361.37 1086.63 361.37H957.948V361.366ZM1003.09 337.899H1022.95C1024.11 337.899 1025.13 337.152 1025.47 336.06L1070.35 190.267C1070.86 188.601 1069.6 186.918 1067.83 186.918H1047.97C1046.82 186.918 1045.8 187.662 1045.46 188.754L1022.95 261.563L1000.58 334.556C1000.06 336.218 1001.32 337.899 1003.09 337.899Z" fill="#FAA551"/>
<path d="M1155.88 173.348C1156.74 170.334 1158.53 167.934 1161.24 166.137C1163.95 164.35 1167.14 163.453 1170.83 163.453H1288.85C1290.61 163.453 1291.87 165.131 1291.37 166.796L1268.68 241.195C1268.46 241.921 1267.93 242.515 1267.23 242.82L1226.82 260.395C1224.87 261.243 1224.7 263.909 1226.52 264.992L1254.23 281.444C1255.26 282.057 1255.74 283.286 1255.38 284.424L1232.67 357.923C1232.15 359.619 1230.09 360.308 1228.63 359.277L1188.62 331.073C1187.7 330.426 1187.3 329.273 1187.63 328.209L1201.12 284.409C1201.47 283.28 1201 282.06 1199.98 281.444L1192.17 276.707C1191.43 276.259 1190.51 276.201 1189.71 276.552L1177.45 282.005C1176.76 282.313 1176.23 282.902 1176.01 283.622L1158.83 339.869C1158.61 340.598 1158.72 341.388 1159.14 342.026L1169.18 357.371C1170.32 359.097 1169.06 361.373 1166.98 361.373H1117.85C1112.87 361.373 1108.87 359.634 1105.83 356.142C1102.8 352.655 1101.92 348.745 1103.23 344.408C1120.15 289.155 1128.91 260.45 1129.52 258.3C1129.54 258.214 1129.57 258.141 1129.6 258.059C1130.31 256.043 1139.07 227.805 1155.88 173.348ZM1227.73 186.918H1207.88C1206.72 186.918 1205.7 187.662 1205.37 188.751L1186.49 249.64C1185.83 251.763 1188 253.67 1190.06 252.773L1212.96 242.814C1213.66 242.509 1214.19 241.921 1214.41 241.201L1230.24 190.273C1230.76 188.604 1229.5 186.918 1227.73 186.918Z" fill="#FAA551"/>
<path d="M1266.38 361.366C1261.4 361.366 1257.39 359.628 1254.36 356.136C1251.33 352.649 1250.46 348.83 1251.76 344.685L1265.11 300.858C1265.6 299.266 1267.45 298.528 1268.92 299.345L1310.4 322.468C1311.46 323.06 1311.97 324.292 1311.63 325.448L1308.96 334.583C1308.47 336.243 1309.73 337.899 1311.48 337.899H1331.39C1332.54 337.899 1333.56 337.152 1333.9 336.057L1351.81 277.628C1352.32 275.963 1351.06 274.282 1349.3 274.282H1276.76C1274.99 274.282 1273.73 272.599 1274.24 270.93L1304.41 173.345C1305.27 170.331 1307.06 167.931 1309.77 166.134C1312.48 164.347 1315.67 163.45 1319.36 163.45H1437.37C1439.13 163.45 1440.39 165.131 1439.88 166.796L1422.4 223.824C1421.9 225.459 1419.97 226.176 1418.5 225.273L1377.64 200.137C1376.62 199.512 1376.16 198.282 1376.52 197.151L1378.72 190.288C1379.26 188.617 1378 186.912 1376.22 186.912H1356.39C1355.24 186.912 1354.22 187.653 1353.88 188.742L1335.67 247.173C1335.15 248.841 1336.42 250.528 1338.18 250.528H1410.71C1412.47 250.528 1413.73 252.212 1413.22 253.877L1386.66 339.833C1386.43 340.574 1386.55 341.376 1386.98 342.023L1397.25 357.334C1398.41 359.058 1397.16 361.36 1395.06 361.36H1266.38V361.366Z" fill="#FAA551"/>
<path d="M360.498 268.82C360.479 268.713 360.452 268.6 360.424 268.496C329.416 158.356 193.592 206.027 182.864 209.879C172.129 213.734 176.034 209.879 176.034 209.879L257.819 129.124C258.254 128.694 258.523 128.127 258.579 127.52L262.035 89.1246C262.205 87.2427 260.343 85.8183 258.539 86.4497L26.1052 168.062C24.743 168.541 24.0263 170.017 24.5082 171.365L33.8587 197.621C34.3405 198.975 35.8418 199.682 37.2102 199.207L84.2931 182.785C86.8941 181.879 88.9699 185.033 87.0763 187.012L44.871 231.09C44.2131 231.776 43.9876 232.761 44.2779 233.661L50.7062 253.529C51.0522 254.597 52.0376 255.326 53.1712 255.332C59.3029 255.375 78.3776 255.686 79.7492 257.894C80.4658 259.05 74.9426 261.935 74.1519 262.344C74.0901 262.378 74.0283 262.411 73.9696 262.448L15.8898 298.467C15.3307 298.814 14.923 299.357 14.75 299.989L0.0956518 353.613C-0.515975 355.852 1.92744 357.697 3.95693 356.529L15.9948 349.596C65.7621 317.798 111.628 330.807 179.45 355.858C242.426 379.121 265.86 373.719 268.884 372.832C269.119 372.762 269.35 372.722 269.594 372.722C276.501 372.661 378.748 370.102 360.498 268.82ZM203.208 297.152C178.128 294.288 152.916 279.181 142.302 272.129C140.309 270.805 141.017 267.758 143.398 267.423C156.369 265.583 187.222 263.082 216.185 274.786C254.671 290.335 224.22 299.553 203.208 297.152Z" fill="#FAA551"/>
<path d="M54.4544 88.7159L74.8976 128.758C75.4938 129.923 76.8746 130.472 78.1225 130.036L167.269 98.824C168.566 98.3696 169.286 97.0062 168.924 95.6977L156.729 51.5715C156.096 49.2778 152.932 48.9637 151.848 51.0865L137.639 78.9037C136.885 80.3799 134.942 80.7917 133.642 79.7516L97.4814 50.8486C95.8319 49.531 93.3607 50.5894 93.2093 52.6787L90.2438 93.465C90.1172 95.1883 88.3534 96.3107 86.7131 95.7129L57.7103 85.1168C55.4738 84.2993 53.3795 86.6113 54.4544 88.7159Z" fill="#FAA551"/>
<path d="M360.498 268.82C360.479 268.713 360.452 268.6 360.424 268.496C329.416 158.356 193.592 206.027 182.864 209.879C172.129 213.734 176.034 209.879 176.034 209.879L257.819 129.124C258.254 128.694 258.523 128.127 258.579 127.52L262.035 89.1246C262.205 87.2427 260.343 85.8183 258.539 86.4497L26.1052 168.062C24.743 168.541 24.0263 170.017 24.5082 171.365L33.8587 197.621C34.3405 198.975 35.8418 199.682 37.2102 199.207L84.2931 182.785C86.8941 181.879 88.9699 185.033 87.0763 187.012L44.871 231.09C44.2131 231.776 43.9876 232.761 44.2779 233.661L50.7062 253.529C51.0522 254.597 52.0376 255.326 53.1712 255.332C59.3029 255.375 78.3776 255.686 79.7492 257.894C80.4658 259.05 74.9426 261.935 74.1519 262.344C74.0901 262.378 74.0283 262.411 73.9696 262.448L15.8898 298.467C15.3307 298.814 14.923 299.357 14.75 299.989L0.0956518 353.613C-0.515975 355.852 1.92744 357.697 3.95693 356.529L15.9948 349.596C65.7621 317.798 111.628 330.807 179.45 355.858C242.426 379.121 265.86 373.719 268.884 372.832C269.119 372.762 269.35 372.722 269.594 372.722C276.501 372.661 378.748 370.102 360.498 268.82ZM203.208 297.152C178.128 294.288 152.916 279.181 142.302 272.129C140.309 270.805 141.017 267.758 143.398 267.423C156.369 265.583 187.222 263.082 216.185 274.786C254.671 290.335 224.22 299.553 203.208 297.152Z" fill="#FAA551"/>
<path d="M54.4544 88.7159L74.8976 128.758C75.4938 129.923 76.8746 130.472 78.1225 130.036L167.269 98.824C168.566 98.3696 169.286 97.0062 168.924 95.6977L156.729 51.5715C156.096 49.2778 152.932 48.9637 151.848 51.0865L137.639 78.9037C136.885 80.3799 134.942 80.7917 133.642 79.7516L97.4814 50.8486C95.8319 49.531 93.3607 50.5894 93.2093 52.6787L90.2438 93.465C90.1172 95.1883 88.3534 96.3107 86.7131 95.7129L57.7103 85.1168C55.4738 84.2993 53.3795 86.6113 54.4544 88.7159Z" fill="#FAA551"/>
</g>
<defs>
<clipPath id="clip0_2362_20635">
<rect width="1440" height="374" fill="white"/>
</clipPath>
</defs>
</svg>
