<?xml version="1.0" encoding="UTF-8" standalone="no"?>
<!DOCTYPE svg PUBLIC "-//W3C//DTD SVG 1.1//EN" "http://www.w3.org/Graphics/SVG/1.1/DTD/svg11.dtd">
<svg width="100%" height="100%" viewBox="0 0 1000 1000" version="1.1" xmlns="http://www.w3.org/2000/svg" xmlns:xlink="http://www.w3.org/1999/xlink" xml:space="preserve" xmlns:serif="http://www.serif.com/" style="fill-rule:evenodd;clip-rule:evenodd;stroke-linejoin:round;stroke-miterlimit:2;">
    <rect id="_3Doktors-Logo" serif:id="3Doktors Logo" x="0" y="0" width="1000" height="1000" style="fill:none;"/>
    <g id="_3Doktors-Logo1" serif:id="3Doktors Logo">
        <g transform="matrix(2.96839,0,0,2.96839,126.765,412.984)">
            <g transform="matrix(1,0,0,1,81.6568,54.3318)">
                <path d="M0,-27.644L-2.275,-27.644C-2.757,-27.644 -3.182,-27.329 -3.32,-26.868L-11.015,-1.409C-11.227,-0.707 -10.702,0 -9.97,0L-7.694,0C-7.213,0 -6.788,-0.316 -6.648,-0.777L1.046,-26.236C1.258,-26.937 0.732,-27.644 0,-27.644M-9.396,-31.94L11.042,-31.94C11.774,-31.94 12.299,-31.233 12.087,-30.532L10.994,-26.92L3.509,-2.175C3.438,-1.94 3.289,-1.735 3.088,-1.595L-5.084,4.1C-5.267,4.228 -5.485,4.296 -5.708,4.296L-18.919,4.296C-19.814,4.296 -20.535,3.978 -21.08,3.338C-21.625,2.701 -21.782,2.002 -21.548,1.242L-12.084,-30.129C-11.929,-30.681 -11.606,-31.121 -11.119,-31.449C-10.633,-31.777 -10.059,-31.94 -9.396,-31.94" style="fill:rgb(250,165,81);fill-rule:nonzero;"/>
            </g>
            <g transform="matrix(1,0,0,1,98.5016,26.6884)">
                <path d="M0,27.643L2.277,27.643C2.759,27.643 3.184,27.328 3.323,26.867L11.018,1.407C11.229,0.706 10.704,-0.001 9.972,-0.001L7.695,-0.001C7.215,-0.001 6.79,0.314 6.65,0.774L2.737,13.666L-1.045,26.236C-1.256,26.937 -0.731,27.643 0,27.643M-8.947,31.94C-9.843,31.94 -10.563,31.622 -11.108,30.982C-11.653,30.344 -11.811,29.645 -11.576,28.885C-10.212,24.296 -9.189,20.87 -8.51,18.609C-7.828,16.35 -7.457,15.151 -7.398,15.012C-7.34,14.875 -7.292,14.728 -7.253,14.572C-7.215,14.417 -7.146,14.176 -7.049,13.847C-6.952,13.519 -6.494,12.009 -5.675,9.317C-4.857,6.626 -3.669,2.691 -2.112,-2.486C-1.957,-3.038 -1.635,-3.478 -1.147,-3.805C-0.661,-4.133 -0.087,-4.297 0.575,-4.297L21.009,-4.297C21.743,-4.297 22.268,-3.587 22.054,-2.886L16.993,13.666L12.759,27.724C12.665,28.034 12.714,28.369 12.892,28.64L13.95,30.247C14.429,30.974 13.908,31.94 13.038,31.94L-8.947,31.94Z" style="fill:rgb(250,165,81);fill-rule:nonzero;"/>
            </g>
            <g transform="matrix(1,0,0,1,127.819,58.6284)">
                <path d="M0,-36.237L6.124,-36.237C6.856,-36.237 7.382,-35.529 7.169,-34.828L3.204,-21.745C2.934,-20.851 3.838,-20.051 4.692,-20.43L7.313,-21.591C7.604,-21.72 7.824,-21.969 7.917,-22.273L11.918,-35.462C12.058,-35.923 12.482,-36.237 12.963,-36.237L20.437,-36.237C21.17,-36.237 21.695,-35.529 21.482,-34.828L17.673,-22.273C17.581,-21.969 17.361,-21.72 17.07,-21.591L11.147,-18.967C10.34,-18.61 10.269,-17.491 11.024,-17.034L14.581,-14.882C15.008,-14.624 15.206,-14.109 15.061,-13.631L11.352,-1.404C11.139,-0.704 10.313,-0.406 9.702,-0.811L3.482,-4.935C3.08,-5.201 2.9,-5.7 3.04,-6.162L5.307,-13.639C5.45,-14.113 5.257,-14.624 4.836,-14.884L4.118,-15.328C3.809,-15.519 3.425,-15.544 3.094,-15.394L1.447,-14.648C1.159,-14.518 0.942,-14.269 0.852,-13.967L-2.075,-4.209C-2.166,-3.903 -2.12,-3.573 -1.947,-3.304L-0.905,-1.682C-0.438,-0.955 -0.96,0 -1.824,0L-9.522,0C-10.417,0 -11.138,-0.319 -11.684,-0.958C-12.229,-1.596 -12.385,-2.311 -12.151,-3.106C-12.112,-3.244 -8.958,-13.684 -2.687,-34.426C-2.532,-34.978 -2.21,-35.418 -1.723,-35.745C-1.236,-36.073 -0.662,-36.237 0,-36.237" style="fill:rgb(250,165,81);fill-rule:nonzero;"/>
            </g>
            <g transform="matrix(1,0,0,1,153.108,54.3318)">
                <path d="M0,-27.644L-2.604,-27.644C-3.339,-27.644 -3.864,-28.354 -3.649,-29.056L-3.32,-30.129C-3.166,-30.681 -2.845,-31.121 -2.356,-31.449C-1.871,-31.777 -1.296,-31.94 -0.634,-31.94L16.575,-31.94C17.312,-31.94 17.838,-31.226 17.617,-30.522L16.957,-28.41C16.814,-27.955 16.393,-27.644 15.915,-27.644L12.036,-27.644C11.555,-27.644 11.131,-27.329 10.991,-26.868L2.843,0.087C2.75,0.393 2.797,0.724 2.97,0.993L4.011,2.615C4.479,3.341 3.956,4.296 3.092,4.296L-4.606,4.296C-5.502,4.296 -6.223,3.978 -6.769,3.338C-7.313,2.701 -7.469,2.002 -7.235,1.242L1.045,-26.237C1.257,-26.938 0.731,-27.644 0,-27.644" style="fill:rgb(250,165,81);fill-rule:nonzero;"/>
            </g>
            <g transform="matrix(1,0,0,1,173.982,26.6884)">
                <path d="M0,27.643L2.277,27.643C2.759,27.643 3.184,27.328 3.322,26.867L11.017,1.407C11.229,0.706 10.704,-0.001 9.972,-0.001L7.695,-0.001C7.214,-0.001 6.79,0.314 6.65,0.774L2.737,13.666L-1.046,26.236C-1.257,26.937 -0.732,27.643 0,27.643M-8.947,31.94C-9.843,31.94 -10.563,31.622 -11.108,30.982C-11.654,30.344 -11.811,29.645 -11.576,28.885C-10.213,24.296 -9.19,20.87 -8.51,18.609C-7.828,16.35 -7.457,15.151 -7.398,15.012C-7.34,14.875 -7.293,14.728 -7.253,14.572C-7.215,14.417 -7.146,14.176 -7.049,13.847C-6.952,13.519 -6.494,12.009 -5.676,9.317C-4.858,6.626 -3.67,2.691 -2.112,-2.486C-1.957,-3.038 -1.635,-3.478 -1.148,-3.805C-0.661,-4.133 -0.087,-4.297 0.575,-4.297L21.009,-4.297C21.742,-4.297 22.268,-3.587 22.053,-2.886L16.993,13.666L12.758,27.724C12.665,28.034 12.714,28.369 12.892,28.64L13.95,30.247C14.428,30.974 13.907,31.94 13.038,31.94L-8.947,31.94Z" style="fill:rgb(250,165,81);fill-rule:nonzero;"/>
            </g>
            <g transform="matrix(1,0,0,1,212.693,54.3318)">
                <path d="M0,-27.644L-2.272,-27.644C-2.754,-27.644 -3.178,-27.33 -3.317,-26.87L-6.185,-17.451C-6.457,-16.557 -5.552,-15.756 -4.697,-16.135L-2.078,-17.295C-1.788,-17.424 -1.568,-17.672 -1.476,-17.975L1.045,-26.233C1.259,-26.935 0.733,-27.644 0,-27.644M-12.08,-30.129C-11.925,-30.681 -11.603,-31.121 -11.115,-31.449C-10.629,-31.777 -10.055,-31.94 -9.393,-31.94L10.991,-31.94C11.723,-31.94 12.248,-31.236 12.038,-30.535L8.279,-17.979C8.188,-17.673 7.967,-17.423 7.676,-17.294L1.755,-14.67C0.947,-14.313 0.876,-13.195 1.632,-12.737L5.188,-10.585C5.615,-10.327 5.812,-9.812 5.668,-9.334L1.976,2.837C1.758,3.553 0.901,3.843 0.293,3.407L-5.837,-0.994C-6.216,-1.266 -6.38,-1.749 -6.245,-2.197L-4.085,-9.343C-3.942,-9.816 -4.136,-10.328 -4.557,-10.588L-5.274,-11.031C-5.584,-11.222 -5.968,-11.247 -6.299,-11.097L-7.945,-10.352C-8.233,-10.221 -8.45,-9.973 -8.541,-9.67L-11.468,0.088C-11.56,0.394 -11.513,0.724 -11.34,0.992L-10.298,2.615C-9.831,3.341 -10.353,4.296 -11.217,4.296L-18.915,4.296C-19.811,4.296 -20.531,3.978 -21.076,3.338C-21.621,2.701 -21.778,1.985 -21.544,1.191C-18.521,-8.863 -16.945,-14.117 -16.819,-14.567C-16.813,-14.588 -16.808,-14.606 -16.801,-14.627C-16.656,-15.051 -15.082,-20.217 -12.08,-30.129" style="fill:rgb(250,165,81);fill-rule:nonzero;"/>
            </g>
            <g transform="matrix(1,0,0,1,220.476,22.3912)">
                <path d="M0,36.237C-0.896,36.237 -1.616,35.919 -2.161,35.279C-2.706,34.641 -2.863,33.943 -2.629,33.182L-0.451,25.903C-0.25,25.231 0.523,24.92 1.134,25.266L7.489,28.876C7.929,29.125 8.14,29.642 8,30.128L7.879,30.546C7.679,31.244 8.202,31.94 8.929,31.94L11.224,31.94C11.706,31.94 12.131,31.624 12.27,31.163L15.117,21.699C15.328,20.999 14.804,20.293 14.071,20.293L2.699,20.293C1.967,20.293 1.441,19.585 1.654,18.883L6.835,1.811C6.99,1.259 7.312,0.82 7.8,0.492C8.286,0.164 8.86,0 9.522,0L29.904,0C30.637,0 31.161,0.706 30.95,1.407L28.28,10.277C28.072,10.966 27.266,11.27 26.654,10.887L20.404,6.97C19.982,6.707 19.793,6.191 19.942,5.717C20.164,5.013 19.639,4.297 18.901,4.297L16.641,4.297C16.161,4.297 15.737,4.61 15.597,5.069L12.7,14.533C12.485,15.235 13.011,15.945 13.745,15.945L25.11,15.945C25.843,15.945 26.368,16.653 26.155,17.354L21.707,32.02C21.613,32.331 21.662,32.667 21.84,32.938L22.897,34.545C23.376,35.271 22.855,36.237 21.985,36.237L0,36.237Z" style="fill:rgb(250,165,81);fill-rule:nonzero;"/>
            </g>
            <g transform="matrix(1,0,0,1,36.0553,21.2703)">
                <path d="M0,23.418C-3.613,23 -7.242,21.146 -9.513,19.77C-10.375,19.248 -10.063,17.922 -9.059,17.839C-6.294,17.612 -1.874,17.642 2.324,19.36C9.218,22.182 3.763,23.853 0,23.418M28.179,18.311C28.171,18.27 28.162,18.228 28.15,18.189C22.58,-1.75 -1.724,6.888 -3.645,7.586C-5.567,8.286 -4.868,7.586 -4.868,7.586L9.634,-6.915C9.807,-7.088 9.914,-7.317 9.936,-7.561L10.457,-13.428C10.524,-14.186 9.784,-14.758 9.067,-14.503L-31.185,-0.19C-31.726,0.002 -32.01,0.597 -31.819,1.139L-30.524,4.821C-30.333,5.366 -29.736,5.651 -29.192,5.46L-23.539,3.462C-22.506,3.097 -21.68,4.367 -22.433,5.164L-28.129,11.188C-28.39,11.464 -28.48,11.861 -28.364,12.223L-27.442,15.11C-27.306,15.538 -26.91,15.83 -26.461,15.836C-25.098,15.856 -22.334,15.938 -22.113,16.297C-21.99,16.499 -22.904,16.993 -23.098,17.094C-23.122,17.107 -23.146,17.121 -23.17,17.135L-33.362,23.537C-33.585,23.677 -33.746,23.896 -33.814,24.149L-36.018,32.312C-36.261,33.213 -35.29,33.956 -34.483,33.485L-33.533,32.931C-24.619,27.163 -16.404,29.523 -4.256,34.067C6.729,38.176 10.996,37.355 11.713,37.161C11.795,37.138 11.875,37.126 11.96,37.125C13.69,37.097 31.37,36.367 28.179,18.311" style="fill:rgb(250,165,81);fill-rule:nonzero;"/>
            </g>
            <g transform="matrix(1,0,0,1,10.568,5.9042)">
                <path d="M0,1.809L2.778,7.321C3.015,7.79 3.563,8.01 4.06,7.834L19.049,2.519C19.564,2.337 19.852,1.788 19.707,1.261L18.056,-4.791C17.805,-5.713 16.548,-5.839 16.117,-4.985L14.564,-1.907C14.265,-1.313 13.493,-1.147 12.976,-1.566L7.905,-5.67C7.25,-6.201 6.268,-5.775 6.207,-4.934L5.81,0.608C5.76,1.301 5.059,1.753 4.406,1.512L1.294,0.36C0.405,0.032 -0.427,0.963 0,1.809" style="fill:rgb(250,165,81);fill-rule:nonzero;"/>
            </g>
            <g transform="matrix(1,0,0,1,36.0553,21.2703)">
                <path d="M0,23.418C-3.613,23 -7.242,21.146 -9.513,19.77C-10.375,19.248 -10.063,17.922 -9.059,17.839C-6.294,17.612 -1.874,17.642 2.324,19.36C9.218,22.182 3.763,23.853 0,23.418M28.179,18.311C28.171,18.27 28.162,18.228 28.15,18.189C22.58,-1.75 -1.724,6.888 -3.645,7.586C-5.567,8.286 -4.868,7.586 -4.868,7.586L9.634,-6.915C9.807,-7.088 9.914,-7.317 9.936,-7.561L10.457,-13.428C10.524,-14.186 9.784,-14.758 9.067,-14.503L-31.185,-0.19C-31.726,0.002 -32.01,0.597 -31.819,1.139L-30.524,4.821C-30.333,5.366 -29.736,5.651 -29.192,5.46L-23.539,3.462C-22.506,3.097 -21.68,4.367 -22.433,5.164L-28.129,11.188C-28.39,11.464 -28.48,11.861 -28.364,12.223L-27.442,15.11C-27.306,15.538 -26.91,15.83 -26.461,15.836C-25.098,15.856 -22.334,15.938 -22.113,16.297C-21.99,16.499 -22.904,16.993 -23.098,17.094C-23.122,17.107 -23.146,17.121 -23.17,17.135L-33.362,23.537C-33.585,23.677 -33.746,23.896 -33.814,24.149L-36.018,32.312C-36.261,33.213 -35.29,33.956 -34.483,33.485L-33.533,32.931C-24.619,27.163 -16.404,29.523 -4.256,34.067C6.729,38.176 10.996,37.355 11.713,37.161C11.795,37.138 11.875,37.126 11.96,37.125C13.69,37.097 31.37,36.367 28.179,18.311" style="fill:rgb(250,165,81);fill-rule:nonzero;"/>
            </g>
            <g transform="matrix(1,0,0,1,10.568,5.9042)">
                <path d="M0,1.809L2.778,7.321C3.015,7.79 3.563,8.01 4.06,7.834L19.049,2.519C19.564,2.337 19.852,1.788 19.707,1.261L18.056,-4.791C17.805,-5.713 16.548,-5.839 16.117,-4.985L14.564,-1.907C14.265,-1.313 13.493,-1.147 12.976,-1.566L7.905,-5.67C7.25,-6.201 6.268,-5.775 6.207,-4.934L5.81,0.608C5.76,1.301 5.059,1.753 4.406,1.512L1.294,0.36C0.405,0.032 -0.427,0.963 0,1.809" style="fill:rgb(250,165,81);fill-rule:nonzero;"/>
            </g>
            <g transform="matrix(1,0,0,1,36.0553,21.2703)">
                <path d="M0,23.418C-3.613,23 -7.242,21.146 -9.513,19.77C-10.375,19.248 -10.063,17.922 -9.059,17.839C-6.294,17.612 -1.874,17.642 2.324,19.36C9.218,22.182 3.763,23.853 0,23.418M28.179,18.311C28.171,18.27 28.162,18.228 28.15,18.189C22.58,-1.75 -1.724,6.888 -3.645,7.586C-5.567,8.286 -4.868,7.586 -4.868,7.586L9.634,-6.915C9.807,-7.088 9.914,-7.317 9.936,-7.561L10.457,-13.428C10.524,-14.186 9.784,-14.758 9.067,-14.503L-31.185,-0.19C-31.726,0.002 -32.01,0.597 -31.819,1.139L-30.524,4.821C-30.333,5.366 -29.736,5.651 -29.192,5.46L-23.539,3.462C-22.506,3.097 -21.68,4.367 -22.433,5.164L-28.129,11.188C-28.39,11.464 -28.48,11.861 -28.364,12.223L-27.442,15.11C-27.306,15.538 -26.91,15.83 -26.461,15.836C-25.098,15.856 -22.334,15.938 -22.113,16.297C-21.99,16.499 -22.904,16.993 -23.098,17.094C-23.122,17.107 -23.146,17.121 -23.17,17.135L-33.362,23.537C-33.585,23.677 -33.746,23.896 -33.814,24.149L-36.018,32.312C-36.261,33.213 -35.29,33.956 -34.483,33.485L-33.533,32.931C-24.619,27.163 -16.404,29.523 -4.256,34.067C6.729,38.176 10.996,37.355 11.713,37.161C11.795,37.138 11.875,37.126 11.96,37.125C13.69,37.097 31.37,36.367 28.179,18.311" style="fill:rgb(250,165,81);fill-rule:nonzero;"/>
            </g>
            <g transform="matrix(1,0,0,1,10.568,5.9042)">
                <path d="M0,1.809L2.778,7.321C3.015,7.79 3.563,8.01 4.06,7.834L19.049,2.519C19.564,2.337 19.852,1.788 19.707,1.261L18.056,-4.791C17.805,-5.713 16.548,-5.839 16.117,-4.985L14.564,-1.907C14.265,-1.313 13.493,-1.147 12.976,-1.566L7.905,-5.67C7.25,-6.201 6.268,-5.775 6.207,-4.934L5.81,0.608C5.76,1.301 5.059,1.753 4.406,1.512L1.294,0.36C0.405,0.032 -0.427,0.963 0,1.809" style="fill:rgb(250,165,81);fill-rule:nonzero;"/>
            </g>
        </g>
    </g>
</svg>
