<svg width="1440" height="807" viewBox="0 0 1440 807" fill="none" xmlns="http://www.w3.org/2000/svg">
<g clip-path="url(#clip0_1502_17436)">
<rect width="1440" height="807" fill="#009F56"/>
<g opacity="0.2">
<mask id="mask0_1502_17436" style="mask-type:luminance" maskUnits="userSpaceOnUse" x="-63" y="0" width="1566" height="1011">
<path d="M1503 0H-63V1010.88H1503V0Z" fill="white"/>
</mask>
<g mask="url(#mask0_1502_17436)">
<path d="M115.081 -84.9757C106.996 -80.0587 99.5718 -74.06 93.0664 -67.19C90.8651 -64.8658 88.6357 -61.5385 90.1528 -58.7196C98.1051 -61.0264 105.91 -63.8422 113.504 -67.1426C115.053 -66.0351 113.969 -63.6042 112.751 -62.1411C101.221 -48.292 86.1622 -37.9213 72.6321 -26.021C50.7089 -6.73738 32.7403 16.6441 16.6755 41.0234C14.7657 43.9232 12.7959 47.3477 13.8045 50.6697C18.3545 49.0135 22.4806 46.3943 26.5305 43.7421C52.205 26.929 76.4793 7.97821 99.0201 -12.8482C101.604 -15.2348 104.625 -17.815 108.129 -17.502C106.903 -15.1167 106.376 -11.1561 109.02 -10.7016C109.949 -10.5421 110.862 -11.0002 111.695 -11.4445C125.977 -19.058 140.26 -26.6716 154.543 -34.2857C161.823 -22.0778 173.83 -10.4557 187.921 -8.58965C195.542 -7.57927 203.178 -9.77032 210.823 -10.5852C214.228 -10.9486 217.694 -11.0463 220.978 -12.0129C224.703 -13.1109 228.022 -15.2816 231.09 -17.6633C238.306 -23.2621 244.479 -30.2004 249.199 -38.0197C254.293 -30.1861 264.665 -27.8139 274.006 -27.5686C284.578 -27.291 295.321 -28.9202 304.911 -33.3779C314.503 -37.8355 322.882 -45.259 327.502 -54.7734C341.11 -57.4987 357.223 -64.852 366.713 -74.978C376.203 -85.1046 380.973 -100.329 376.223 -113.37C373.707 -120.277 368.841 -126.042 363.888 -131.474C357.779 -138.175 350.774 -144.953 341.843 -146.52C335.241 -147.678 328.525 -145.797 322.086 -143.933C322.878 -150.263 316.836 -155.427 310.821 -157.549C301.475 -160.847 290.707 -159.845 282.129 -154.881C275.431 -163.91 262.725 -172.347 251.571 -173.75C240.417 -175.152 228.973 -172.589 218.902 -167.594C210.031 -163.194 201.365 -155.545 201.16 -145.645C179.108 -154.343 152.031 -148.256 135.823 -130.957C131.056 -125.869 127.22 -119.986 123.681 -113.979C119.307 -106.56 113.827 -93.4947 115.081 -84.9757Z" fill="#BAE0C8"/>
<path d="M142.359 -14.3438C136.092 -9.84111 127.172 -3.57014 121.397 1.35585C115.501 6.07676 107.584 13.7053 102.012 18.9665C110.006 3.03063 125.209 -9.49272 142.359 -14.3438Z" fill="#BAE0C8"/>
<path d="M1.14095 143.349C-1.5562 135.087 2.29164 125.18 9.85901 120.907C17.427 116.631 27.8978 118.449 33.5817 125.024C37.0128 128.993 38.5353 135.306 35.2955 139.433C35.7434 135.806 39.5978 133.575 43.1992 132.953C53.6772 131.143 64.3885 138.787 67.8178 148.851C71.2471 158.916 68.2459 170.424 61.8328 178.907C55.4203 187.388 45.9989 193.161 36.1451 197.157C27.8582 200.518 18.3846 202.728 10.0833 199.403C1.78077 196.079 -3.8252 185.27 1.01384 177.749C-0.162043 176.806 -1.71868 174.178 -3.17459 174.57C-5.24992 175.129 -7.49794 174.209 -9.07258 172.746C-10.6472 171.284 -11.6786 169.344 -12.6806 167.443C-14.0298 164.883 -15.4119 162.202 -15.4671 159.31C-15.5264 156.17 -14.0064 153.218 -12.2254 150.632C-10.7474 148.488 -8.99224 146.431 -6.66267 145.267C-4.33249 144.102 -0.911599 141.746 1.14095 143.349Z" fill="#BAE0C8"/>
<path d="M366.384 343.191C362.652 344.822 359.874 348.467 359.29 352.498C358.704 356.529 360.333 360.813 363.449 363.437C367.337 366.713 372.913 367.205 377.932 366.385C379.942 366.058 381.976 365.522 383.628 364.329C387.911 361.236 388.216 355.084 388.112 349.801C390.721 353.024 395.245 354.284 399.349 353.683C403.451 353.083 407.162 350.859 410.303 348.153C413.872 345.08 416.951 341.123 417.763 336.484C418.214 333.908 417.943 331.249 417.333 328.706C415.322 320.301 409.022 312.628 400.619 310.612C392.215 308.597 382.264 313.547 380.184 321.934C378.324 320.311 374.27 317.278 371.888 317.925C369.505 318.573 367.437 320.064 365.612 321.726C364.2 323.011 362.868 324.464 362.179 326.243C360.275 331.166 363.078 339.08 366.384 343.191Z" fill="#BAE0C8"/>
<path d="M101.002 504.648C104.614 498.018 113.416 494.313 120.284 497.45C127.151 500.586 129.817 510.899 124.567 516.323C128.914 510.025 138.605 509.163 145.147 513.132C151.69 517.102 155.34 524.655 156.629 532.198C157.118 535.049 157.313 538.017 156.53 540.802C155.843 543.245 154.437 545.424 152.888 547.434C143.593 559.511 129.179 566.348 115.131 572.258C109.655 574.56 103.958 576.828 98.0183 576.738C85.7091 576.551 74.9355 564.449 76.1767 552.202C76.7134 546.902 79.7301 541.392 84.842 539.896C83.0995 540.232 78.7323 537.447 77.0246 536.965C74.4192 536.232 71.5667 535.316 70.1792 532.99C69.0249 531.056 69.1963 528.639 69.405 526.397C69.832 521.801 70.35 516.957 73.0706 513.229C74.2201 511.655 75.7113 510.362 77.2728 509.197C82.5921 505.224 88.8967 502.583 95.4591 501.575C97.3179 501.288 99.8682 503.148 101.002 504.648Z" fill="#BAE0C8"/>
<path d="M212.66 161.474C211.611 157.675 207.129 156.13 203.249 155.43C177.151 150.73 149.105 158.307 128.923 175.509C118.848 184.098 110.583 195.191 107.022 207.942C103.46 220.692 105.022 235.159 112.741 245.914C107.378 240.847 98.5937 243.688 92.216 247.395C69.3436 260.691 51.0824 282.534 44.2903 308.103C37.4989 333.673 43.0017 362.706 60.4282 382.611C77.8554 402.516 107.266 411.79 132.368 403.439C146.782 421.331 168.046 438.702 190.803 441.865C213.56 445.028 237.444 439.205 256.19 425.922C264.454 420.068 271.686 412.881 278.527 405.414C289.564 393.368 300.003 379.872 303.487 363.91C307.43 345.842 301.973 327.196 296.568 309.509C299.509 313.859 305.419 314.922 310.668 314.981C321.074 315.097 331.652 312.677 340.41 307.056C357.979 295.778 365.661 272.294 360.82 251.984C355.981 231.675 340.143 214.998 321.184 206.256C331.414 206.549 339.479 194.878 342.791 185.194C346.102 175.509 344.492 164.75 340.963 155.143C339.6 151.431 337.911 147.749 335.205 144.866C332.326 141.802 328.468 139.828 324.516 138.395C316.978 135.659 308.802 134.697 300.834 135.609C298.181 135.912 295.486 136.419 292.866 135.91C287.448 134.859 283.823 129.878 280.792 125.266C277.439 120.163 273.984 114.461 274.746 108.403C275.201 104.791 277.119 101.554 278.996 98.4356C283.735 90.56 289.443 81.9631 298.43 80.0335C290.516 76.4884 281.408 75.6843 272.995 77.7866C265.105 79.7582 257.992 84.1667 251.826 89.4723C231.119 107.29 216.997 134.504 212.66 161.474Z" fill="#BAE0C8"/>
<path d="M606.246 136.266C609.962 141.76 617.367 143.307 623.999 143.28C636.511 143.232 649.53 138.759 657.398 129.03C665.264 119.3 666.439 103.868 658.105 94.5348C653.691 89.592 647.308 86.8367 640.886 85.1979C630.651 82.5847 619.492 82.5229 609.812 86.7521C600.132 90.9801 592.229 99.9357 590.878 110.412C590.361 114.424 590.78 118.521 590.154 122.517C588.622 132.283 580.235 140.571 570.45 141.989C565.897 142.648 560.65 141.619 558.024 137.84C554.654 149.429 543.613 157.685 531.828 160.289C520.042 162.893 507.669 160.617 496.264 156.663C491.689 155.077 486.991 153.064 484.022 149.238C479.995 144.048 480.131 136.543 482.683 130.489C485.236 124.435 489.827 119.507 494.358 114.748C486.781 113.866 477.681 106.875 472.147 101.624C460.743 90.8051 453.927 75.2974 453.668 59.5792C453.41 43.861 459.711 28.1374 470.754 16.9488C478.511 9.08765 488.295 3.55544 498.217 -1.29379C522.262 -13.0436 550.381 -21.4001 575.532 -12.2521C568.175 -31.8151 567.41 -58.3381 577.907 -76.411C588.404 -94.4834 604.916 -108.424 622.821 -119.206C638.791 -128.826 656.283 -136.266 674.703 -139.146C693.123 -142.028 712.539 -140.159 729.319 -132.033C736.368 -128.62 742.968 -124.076 747.987 -118.066C761.427 -134.818 781.295 -148.482 802.772 -148.579C807.529 -148.602 812.341 -148.142 816.832 -146.575C830.008 -141.979 838.281 -128.631 841.976 -115.175C852.903 -121.127 866.737 -115.608 876.197 -107.528C883.59 -101.214 890.025 -91.2627 886.392 -82.2461C894.119 -83.3242 902.448 -82.5705 909.543 -79.3252C927.892 -70.9322 942.021 -53.7233 946.422 -34.0332C950.824 -14.343 945.296 7.3643 931.813 22.3749C918.332 37.3843 897.195 45.2113 877.224 42.3427C882.875 49.4645 887.065 57.7419 889.455 66.5133C890.704 71.0915 891.465 75.9282 890.515 80.5777C889.161 87.2127 884.52 92.6711 879.589 97.3135C864.029 111.97 843.835 121.633 822.657 124.553C816.995 125.334 811.179 125.639 805.609 124.36C797.098 122.407 789.853 116.951 781.753 113.694C773.764 110.484 764.708 109.482 756.472 111.995C748.238 114.506 740.995 120.802 738.37 129.002C739.799 119.69 726.391 105.998 716.971 105.827C707.552 105.655 698.94 110.746 690.91 115.671C676.603 124.444 661.878 133.605 652.296 147.382C649.933 150.779 647.877 154.537 647.38 158.643C646.883 162.751 648.208 167.274 651.533 169.737C654.781 172.142 659.19 172.179 663.198 171.655C679.674 169.501 694.035 159.874 708.411 151.542C712.679 149.068 717.092 146.654 721.93 145.69C726.768 144.726 732.169 145.407 735.94 148.589C738.39 150.657 739.966 153.602 740.963 156.651C744.192 166.523 741.691 177.622 736.238 186.461C730.783 195.3 722.654 202.168 714.136 208.109C700.688 217.487 683.4 225.116 668.296 218.744C670.658 223.648 669.335 229.727 666.167 234.153C663 238.579 658.266 241.616 653.441 244.137C646.968 247.519 639.922 250.209 632.618 250.236C625.315 250.264 617.703 247.242 613.636 241.176C621.4 236.718 629.521 231.908 633.957 224.133C638.393 216.357 637.384 204.719 629.511 200.459C624.906 197.968 619.255 198.559 614.196 199.905C593.517 205.406 577.719 221.567 562.237 236.337C546.754 251.107 528.848 265.842 507.491 267.167C512.929 265.524 516.822 260.152 521.458 256.869C530.79 250.259 540.004 243.268 547.314 234.474C554.625 225.679 559.967 214.854 560.404 203.426C560.635 197.383 560.684 189.436 566.471 187.672C569.396 186.779 572.467 188.115 575.453 188.775C587.002 191.324 598.934 182.869 603.403 171.919C607.869 160.97 609.985 147.486 606.246 136.266Z" fill="#BAE0C8"/>
<path d="M552.143 1150.76C551.189 1153.66 554.45 1156.51 553.998 1159.53C553.43 1163.34 548.085 1163.81 544.369 1162.81C540.654 1161.81 535.917 1160.65 533.582 1163.71C531.744 1166.12 532.781 1169.53 533.628 1172.43C534.93 1176.9 535.575 1181.77 533.991 1186.15C532.405 1190.52 528.073 1194.14 523.446 1193.66C521.013 1193.41 518.837 1192.11 516.571 1191.19C508.867 1188.06 498.52 1190.22 494.865 1197.69C493.64 1200.2 493.257 1203.02 492.567 1205.72C490.176 1215.07 483.778 1223.32 475.319 1227.96C466.86 1232.61 456.462 1233.58 447.289 1230.58C456.83 1240.85 471.381 1246.23 485.305 1244.63C499.23 1243.04 512.187 1234.51 519.158 1222.35C519.688 1221.42 520.208 1220.45 521.047 1219.8C524.556 1217.05 529.156 1221.69 533.582 1222.19C538.196 1222.7 542.019 1218.42 543.579 1214.05C545.14 1209.68 545.353 1204.85 547.392 1200.68C550.416 1194.5 556.91 1190.82 563.335 1188.35C569.76 1185.88 576.606 1184.17 582.27 1180.26C587.935 1176.35 592.253 1169.38 590.501 1162.72C594.456 1165.37 601.897 1159.83 605.347 1156.56C608.797 1153.28 612.466 1149.23 617.22 1149.41C621.987 1149.6 625.48 1154.14 626.924 1158.68C628.368 1163.23 628.501 1168.15 630.299 1172.57C634.18 1182.1 645.272 1187.16 655.554 1186.77C665.837 1186.38 675.417 1181.58 684.183 1176.19C683.471 1182.96 689.519 1189.01 696.163 1190.52C702.807 1192.03 709.727 1190.08 716.094 1187.65C740.513 1178.35 762.044 1161.62 777.088 1140.26C790.968 1134.64 802.191 1122.8 807.067 1108.64C811.942 1094.49 810.385 1078.25 802.907 1065.28C800.475 1061.06 797.394 1057.12 793.388 1054.35C788.885 1051.24 783.465 1049.76 778.091 1048.73C767.019 1046.59 755.631 1046.1 744.418 1047.28C746.796 1038.5 747.552 1028.92 744.158 1020.48C740.764 1012.04 732.447 1005.18 723.364 1005.59C713.416 1006.05 705.806 1014.41 696.575 1018.15C685.404 1022.67 670.607 1018.78 665.392 1007.92C663.279 1003.52 662.85 998.514 662.706 993.634C662.489 986.221 662.932 978.5 666.432 971.963C669.932 965.424 677.218 960.414 684.529 961.658C691.951 962.922 696.989 969.851 700.236 976.643C702.174 980.696 703.987 985.163 707.767 987.587C710.112 989.092 712.936 989.609 715.679 990.095C728.811 992.424 742.348 994.747 755.379 991.908C768.411 989.067 780.964 979.752 783.432 966.644C783.895 977.158 789.175 990.335 798.618 994.977C808.063 999.619 821.398 996.086 825.443 986.37C822.705 992.272 824.95 999.186 827.388 1005.22C833.453 1020.22 841.301 1035.56 855.04 1044.12C863.024 1049.09 872.392 1051.35 881.687 1052.79C898.634 1055.41 916.654 1055.37 932.116 1047.96C943.172 1042.67 952.281 1033.87 959.385 1023.88C965.233 1015.65 969.952 1006.09 969.826 995.996C969.713 986.78 965.609 978.144 961.591 969.849C969.539 975.244 980.503 973.007 988.905 968.349C997.834 963.4 1005.62 955.517 1008.17 945.634C1010.73 935.753 1006.92 923.94 997.884 919.187C1010.6 921.843 1022.13 908.975 1028.32 897.549C1035.06 885.09 1035.05 868.61 1026.34 857.429C1017.64 846.248 999.876 842.523 988.512 850.988C993.782 845.189 995.014 836.073 991.475 829.083C987.937 822.093 979.861 817.69 972.068 818.504C976.591 806.404 969.002 792.268 957.745 785.931C946.488 779.594 932.731 779.552 919.979 781.611C909.588 783.289 899.159 786.369 890.743 792.691C882.327 799.013 876.186 809.025 876.559 819.544C875.214 814.982 869.013 814.416 864.308 815.118C851.826 816.978 839.302 821.639 830.612 830.792C821.924 839.946 817.938 854.211 823.219 865.673C827.317 874.568 836.217 880.509 845.597 883.326C852.522 885.405 860.088 885.993 866.942 883.692C873.797 881.391 879.791 875.876 881.479 868.847C893.48 874.407 909.543 867.803 914.162 855.411C918.168 865.784 932.75 872.298 941.733 865.746C927.962 867.258 916.125 879.409 914.976 893.214C913.825 907.018 923.488 920.961 936.817 924.732C929.061 919.88 917.885 926.561 916.134 935.539C914.384 944.517 919.862 953.627 927.235 959.039C924 955.883 918.839 959.573 914.336 959.96C910.221 960.315 906.501 957.718 902.544 956.53C895.762 954.496 888.539 956.671 881.498 957.432C874.457 958.192 866.031 956.724 862.844 950.397C860.297 945.338 861.99 938.679 858.648 934.106C855.404 929.664 848.936 929.263 843.504 930.122C834.021 931.618 824.96 935.707 817.565 941.829C821.341 928.955 816.968 914.35 807.588 904.758C798.209 895.166 784.39 890.486 770.988 891.097C755.538 891.799 738.761 901.996 737.905 917.438C738.528 905.579 732.081 892.966 720.979 888.747C709.877 884.53 695.225 891.417 693.424 903.156C683.485 893.598 668.765 890.86 654.977 891.036C634.13 891.301 612.948 897.541 596.965 910.926C580.981 924.311 570.87 945.298 573.028 966.033C575.187 986.77 590.832 1006.12 611.279 1010.19C606.764 1015.84 602.316 1023.95 599.369 1030.56C596.42 1037.16 595.217 1044.85 597.647 1051.67C599.491 1056.84 603.26 1061.11 607.393 1064.72C613.36 1069.94 620.599 1074.19 628.509 1074.69C636.418 1075.19 644.953 1071.14 647.897 1063.78C655.913 1075.2 670.381 1082.15 684.162 1079.98C697.944 1077.8 709.959 1065.9 711.05 1051.99C716.411 1074.08 735.304 1092.29 757.578 1096.83C740.27 1099.91 725.819 1115.06 723.56 1132.5C719.321 1122.46 709.362 1115.07 698.52 1113.93C687.68 1112.79 676.4 1117.93 670.161 1126.87C662.6 1115.62 646.308 1111.28 634.149 1117.28C626.574 1121.03 620.412 1128.23 612.011 1129.13C609.728 1129.37 607.154 1128.99 605.683 1127.22C604.988 1126.39 604.617 1125.34 604.384 1124.28C603.079 1118.34 606.251 1111.72 611.693 1109.02C603.844 1106.76 594.993 1108.32 588.383 1113.12C581.774 1117.92 577.552 1125.85 577.263 1134.01C577.169 1136.65 577.454 1139.36 576.661 1141.88C575.322 1146.13 571.049 1148.97 566.653 1149.72C562.253 1150.45 556.38 1152.15 552.143 1150.76Z" fill="#BAE0C8"/>
<path d="M1480.5 -146.824C1470.72 -137.044 1455.35 -136.452 1441.53 -135.933C1424.15 -135.281 1406.66 -133.756 1390 -128.783C1373.34 -123.81 1357.43 -115.171 1346 -102.072C1334.33 -88.7123 1327.93 -71.4681 1324.55 -54.0577C1319.82 -29.7156 1320.69 -4.00218 1329.29 19.2564C1337.89 42.515 1354.55 63.1172 1376.63 74.413C1387.34 79.8943 1399.04 83.1263 1410.75 85.8864C1421.33 88.3785 1434.79 89.45 1440.73 80.356C1443.96 94.5469 1460.84 108.439 1475.39 108.445C1489.94 108.449 1503.5 93.8855 1500.28 79.6928C1507.32 87.3033 1516.21 93.6943 1526.42 95.5357C1536.62 97.3778 1548.19 93.8526 1553.91 85.2101C1555.06 94.2501 1560.18 102.715 1567.67 107.915C1557.12 105.427 1545.59 107.375 1536.45 113.193C1530.34 117.085 1524.99 123.408 1525.18 130.655C1525.28 134.714 1527.12 138.565 1529.55 141.812C1540.08 155.847 1559.48 158.699 1575.78 165.178C1579.28 166.569 1583.11 168.658 1583.9 172.34C1584.33 174.317 1583.75 176.368 1583.04 178.26C1576.82 194.669 1560.32 204.961 1543.72 210.614C1527.11 216.268 1509.4 218.521 1493.2 225.256C1477 231.991 1461.7 244.784 1458.83 262.093C1455.84 280.113 1467.47 298.026 1482.8 307.961C1498.13 317.896 1516.58 321.515 1534.52 324.935C1518.38 316.006 1504.42 303.156 1494.2 287.804C1490.79 282.692 1487.69 276.423 1489.72 270.627C1493.14 260.873 1506.69 260.962 1516.98 261.947C1533.59 263.536 1551.22 262.358 1565.48 253.673C1579.73 244.989 1589.39 227.2 1584.49 211.243C1602.68 209.832 1618.76 194.25 1620.72 176.109C1622.69 157.968 1610.34 139.301 1592.88 134.02C1603.46 131.697 1611.78 122.788 1615.54 112.626C1619.31 102.465 1619.08 91.222 1617.29 80.5341C1612.89 54.3223 1597.94 28.7072 1573.96 17.2434C1549.97 5.78084 1517.06 12.4674 1503.76 35.4795C1501.63 15.9908 1480.32 0.966995 1461.25 5.51701C1454.21 7.19778 1447.64 11.0846 1440.4 11.2867C1430.13 11.5745 1420.35 3.17845 1419.08 -7.01591C1418.81 -9.10924 1418.94 -11.4346 1420.32 -13.0278C1422.52 -15.5637 1426.51 -14.9964 1429.82 -14.4256C1457.47 -9.6537 1487.34 -21.5289 1504.17 -43.9833C1521 -66.4378 1524.02 -98.442 1511.68 -123.646C1506.36 -134.521 1491.9 -142.72 1480.5 -146.824Z" fill="#BAE0C8"/>
<path d="M1120.03 -314.874C1123.85 -309.273 1128.98 -304.569 1134.88 -301.246C1130.1 -296.436 1125.86 -291.079 1122.27 -285.312C1119.14 -280.26 1116.43 -274.431 1117.39 -268.563C1118.36 -262.695 1124.51 -257.442 1130.1 -259.478C1125.79 -251.677 1122.65 -242.961 1122.96 -234.057C1123.27 -225.151 1127.5 -216.062 1135.18 -211.536C1139.43 -209.03 1144.4 -208.049 1148.91 -206.044C1153.42 -204.037 1157.79 -200.448 1158.41 -195.551C1159.22 -189.198 1153.54 -183.959 1147.97 -180.788C1142.41 -177.617 1135.96 -174.827 1133.18 -169.056C1138.13 -165.671 1145.69 -168.348 1150.29 -164.503C1155 -160.566 1152.93 -152.422 1148.18 -148.532C1143.43 -144.642 1137.09 -143.493 1131.36 -141.288C1118.27 -136.246 1107.78 -124.87 1103.82 -111.408C1101.92 -104.936 1101.9 -96.9296 1107.05 -92.578C1109.9 -90.1717 1113.83 -89.394 1117.56 -89.5463C1125.4 -89.8653 1132.98 -94.1353 1137.32 -100.674C1139.48 -103.942 1140.87 -107.699 1143.2 -110.85C1145.54 -114.001 1149.29 -116.584 1153.15 -115.931C1159.83 -114.802 1161.89 -105.589 1168.01 -102.687C1173.68 -99.9979 1180.1 -103.663 1185.82 -106.257C1198.28 -111.912 1212.95 -112.524 1225.85 -107.927C1231.48 -105.917 1236.99 -102.751 1240.18 -97.6869C1242.53 -93.9548 1243.43 -89.4647 1243.54 -85.0562C1244.1 -62.2594 1224.86 -43.5856 1204.39 -33.5358C1209.75 -29.466 1211.77 -21.8939 1210.13 -15.3735C1208.48 -8.85306 1203.61 -3.44498 1197.77 -0.121796C1192.08 3.11322 1184.98 4.99188 1181.72 10.6668C1177.93 17.2729 1181.08 26.292 1177.13 32.807C1172.08 41.1503 1158.96 40.2383 1152.33 47.3973C1147.27 52.8636 1147.99 62.6076 1153.81 67.2656C1159 71.4258 1162.72 75.5549 1161.05 81.9968C1159.38 88.438 1153.9 93.2477 1148 96.3256C1142.71 99.0851 1136.74 100.892 1132.5 105.081C1126.43 111.061 1125.53 121.538 1130.49 128.463C1135.44 135.388 1145.65 137.922 1153.26 134.117C1158.39 131.556 1162 126.735 1166.75 123.525C1171.5 120.314 1178.84 119.263 1182.33 123.804C1183.78 125.682 1184.23 128.125 1184.52 130.478C1185.36 137.237 1185.21 144.118 1184.06 150.832C1183.8 152.407 1183.47 154.037 1183.87 155.584C1184.67 158.671 1188.08 160.387 1191.25 160.681C1194.43 160.974 1197.62 160.256 1200.8 160.403C1212.54 160.948 1221.01 174.471 1218.18 185.877C1215.35 197.283 1203.62 205.106 1191.88 205.566C1185.97 205.799 1179.06 204.823 1175.04 209.166C1171.58 212.917 1172.18 218.829 1173.65 223.721C1175.12 228.612 1177.26 233.661 1176.14 238.644C1174.69 245.145 1168.05 249.651 1167.03 256.236C1166.59 259.086 1167.28 261.999 1167.05 264.875C1166.65 270.017 1163.05 274.772 1158.21 276.559C1155.54 277.544 1152.28 277.896 1150.75 280.292C1149.63 282.044 1149.87 284.319 1150.35 286.342C1152.25 294.455 1157.4 301.759 1164.39 306.289C1169.36 309.505 1175.98 312.487 1176.35 318.393C1176.7 324.098 1170.78 327.982 1165.52 330.232C1160.27 332.48 1154.1 335.26 1153.01 340.87C1151.52 348.513 1160.3 353.661 1164.74 360.057C1170.74 368.696 1168.61 380.688 1163.86 390.077C1163.02 379.3 1161.88 367.763 1154.96 359.459C1151.65 355.481 1147.25 352.585 1143.13 349.449C1132.39 341.272 1122.55 329.542 1123.17 316.056C1123.63 306.07 1129.81 296.279 1127.17 286.637C1126 282.356 1123.2 278.738 1121.21 274.774C1116.3 265.036 1117.7 250.97 1127.39 245.972C1131.75 243.719 1137.98 242.741 1139.01 237.934C1139.58 235.295 1138.14 232.701 1137.05 230.227C1132.54 219.893 1134.46 206.642 1142.83 199.082C1145.66 196.531 1149.1 194.642 1151.5 191.691C1154.17 188.416 1155.3 184.129 1155.65 179.919C1156.42 170.591 1152.49 159.812 1143.62 156.827C1136.8 154.534 1129.34 157.506 1123.3 161.402C1117.26 165.297 1111.72 170.229 1104.89 172.478C1094.7 175.841 1082.56 172.057 1076.07 163.495C1069.59 154.934 1069.24 142.224 1075.24 133.32C1077.58 129.846 1071.12 121.804 1067.61 119.51C1064.11 117.214 1059.89 116.214 1056.37 113.93C1050.08 109.839 1046.97 102.224 1045.74 94.8169C1044.86 89.5857 1044.85 83.8214 1047.85 79.4459C1052.45 72.7264 1061.92 71.9619 1070.06 72.074C1072.79 72.1118 1076.3 71.6195 1076.95 68.9667C1077.44 66.9771 1075.9 65.1375 1074.7 63.4729C1068.41 54.708 1070.23 41.9467 1076.65 33.2693C1083.06 24.5927 1093.11 19.3506 1103.27 15.7181C1113.64 12.0117 1124.49 9.66898 1135.46 8.77072C1139.87 8.40915 1144.35 8.27246 1148.6 7.02881C1156.67 4.66806 1163.1 -1.43262 1168.39 -7.96201C1171.12 -11.3409 1173.72 -15.0287 1174.61 -19.2843C1175.51 -23.5393 1174.33 -28.4934 1170.76 -30.9735C1165.05 -34.9323 1157.32 -30.8806 1151.92 -26.5093C1146.71 -28.2686 1144.66 -35.048 1146.31 -40.2924C1147.96 -45.5362 1152.23 -49.4836 1156.51 -52.9393C1158.15 -54.2687 1159.93 -55.715 1160.45 -57.7639C1161.19 -60.6932 1159.04 -63.6398 1156.47 -65.2432C1149.5 -69.6055 1140.04 -67.1416 1133.48 -62.1862C1126.91 -57.2309 1122.27 -50.2079 1116.64 -44.2086C1109.35 -36.4368 1100.3 -30.3325 1090.36 -26.4931C1085.65 -24.6744 1080.21 -23.3965 1075.68 -25.6188C1069.34 -28.7279 1067.75 -37.1497 1068.67 -44.1529C1068.96 -46.4021 1069.41 -48.8084 1068.42 -50.849C1066.87 -54.0331 1062.74 -54.7376 1059.22 -55.1747C1051.04 -56.1917 1042.19 -58.3576 1037.24 -64.9595C1030.41 -74.077 1034.2 -87.4014 1040.86 -96.6496C1057.79 -120.179 1076.71 -145.775 1104.9 -152.532C1105.38 -154.873 1102.67 -156.416 1100.93 -158.045C1097.99 -160.781 1097.42 -165.698 1099.65 -169.035C1101.87 -172.372 1106.63 -173.73 1110.29 -172.071C1111.13 -171.687 1111.98 -171.152 1112.9 -171.251C1113.72 -171.339 1114.4 -171.912 1115 -172.473C1119.86 -177.002 1123.94 -182.841 1124.54 -189.454C1125.14 -196.069 1121.33 -203.349 1114.91 -205.047C1108.89 -206.64 1102.84 -203.226 1096.93 -201.272C1091.01 -199.318 1082.83 -199.824 1080.63 -205.654C1079.96 -207.435 1080.02 -209.403 1080.25 -211.293C1081.79 -223.891 1090.4 -234.364 1099.05 -243.655C1102.29 -247.145 1105.77 -252.355 1102.92 -256.181C1101.52 -258.062 1098.96 -258.825 1097.64 -260.758C1095.44 -263.969 1097.72 -268.29 1100.14 -271.34C1105.56 -278.162 1111.93 -284.303 1116.25 -291.868C1120.56 -299.435 1124.05 -307.149 1120.03 -314.874Z" fill="#BAE0C8"/>
<path d="M1041.04 737.779C1046.3 745.311 1056.08 750.513 1064.79 747.571C1060.62 749.931 1059.58 755.904 1061.6 760.245C1063.62 764.589 1067.91 767.463 1072.35 769.254C1080.36 772.487 1089.51 772.831 1097.74 770.215C1095.1 769.727 1093.44 773.037 1093.27 775.711C1092.74 783.888 1097.34 791.823 1103.83 796.829C1110.32 801.834 1118.46 804.249 1126.58 805.4C1117.6 814.064 1111.97 826.122 1111.09 838.57C1109.21 833.623 1107.21 828.626 1103.96 824.439C1100.71 820.255 1096.01 816.918 1090.73 816.479C1085 816.004 1079.59 818.911 1073.95 820.057C1065.48 821.781 1055.94 819.045 1050.55 812.278C1045.15 805.514 1044.91 794.786 1050.82 788.471C1039.05 791.261 1025.87 786.875 1018.12 777.586C1009.71 767.5 1008.11 753.424 1008.38 740.291C1008.53 732.96 1009.23 725.364 1012.85 718.994C1016.5 712.591 1025.48 705.471 1031.29 712.944C1036.55 719.723 1035.88 730.392 1041.04 737.779Z" fill="#BAE0C8"/>
<path d="M1409.4 486.558C1408.82 509.576 1389.08 530.537 1366.13 532.482C1353.32 533.568 1340.45 529.418 1327.67 530.872C1310.75 532.8 1295.52 545.42 1290.48 561.693C1287.82 551.954 1274.78 550.227 1264.77 551.505C1251.55 553.191 1238.32 556.806 1227.23 564.188C1216.13 571.571 1207.35 583.088 1205.34 596.263C1196.14 580.807 1175.24 576.925 1157.37 578.954C1130.17 582.042 1104.27 595.41 1086 615.789C1077.54 625.22 1070.58 636.354 1068.01 648.755C1065.44 661.156 1067.72 674.931 1075.89 684.603C1060.23 691.624 1048.39 706.606 1045.18 723.469C1041.97 740.33 1047.47 758.616 1059.46 770.902C1050.63 762.956 1035.44 766.508 1028.02 775.787C1020.61 785.064 1019.48 797.956 1020.96 809.743C1022.57 822.524 1027.09 835.313 1035.95 844.659C1044.82 854.006 1058.51 859.324 1070.97 856.06C1067.13 868.355 1076.91 881.812 1089.19 885.712C1101.47 889.611 1114.93 886.094 1126.55 880.537C1131.41 903.385 1157.54 919.222 1180.04 912.95C1178.9 930.928 1168.71 942.342 1154.88 953.892C1141.06 965.444 1125.54 976.038 1117.01 991.903C1108.47 1007.77 1110.29 1031.14 1126.19 1039.61C1137.77 1045.79 1153.17 1042.38 1163.77 1050.13C1173.45 1057.19 1175.22 1072.1 1169.25 1082.49C1163.29 1092.89 1151.23 1098.78 1139.28 1099.62C1133.97 1100 1128.48 1099.52 1123.47 1101.31C1112.43 1105.26 1108.11 1121.29 1115.68 1130.25C1097.3 1136.08 1086.56 1154.45 1075.68 1170.36C1064.79 1186.26 1048.65 1202.46 1029.54 1200C1082.61 1200.23 1134.97 1172.15 1164.15 1127.82C1170.05 1139.11 1170.72 1152.99 1165.95 1164.79C1170.85 1157.63 1175.76 1150.45 1180.66 1143.29C1182.55 1140.52 1184.52 1137.68 1187.34 1135.88C1191.24 1133.4 1196.12 1133.27 1200.74 1133.03C1216.37 1132.22 1232.6 1128.87 1244.64 1118.87C1256.67 1108.86 1263 1090.75 1255.67 1076.92C1270.78 1067.98 1286.56 1058.36 1295.18 1043.07C1303.81 1027.78 1301.98 1005.1 1286.71 996.439C1304.37 997.003 1321.83 985.805 1328.67 969.52C1335.52 953.234 1331.32 932.929 1318.57 920.701C1343.6 905.388 1362.94 880.988 1372.13 853.121C1377.6 836.522 1378.78 816.243 1366.81 803.511C1358.37 794.538 1345.1 791.505 1332.83 792.544C1318.11 793.79 1303.91 800.377 1293.45 810.803C1280.63 823.586 1273.86 841.193 1262.6 855.36C1251.32 869.528 1231.53 880.359 1215.4 872.142C1203.31 865.98 1197.91 850.404 1201.1 837.214C1204.29 824.023 1214.61 813.4 1226.58 807.021C1235.17 802.45 1245.28 799.259 1250.59 791.108C1258.88 778.379 1246.75 758.357 1231.63 759.811C1263.79 765.935 1298.33 758.26 1324.87 739.098C1339.62 728.449 1352.76 711.849 1350.23 693.835C1347.26 672.702 1319.07 659.973 1301.26 671.724C1306.52 653.251 1329.71 648.486 1348.29 643.632C1391.54 632.334 1432.02 598.109 1436.31 553.614C1421.54 572.356 1401.45 586.862 1379.01 594.989C1369.94 598.274 1356.44 598.311 1354.26 588.912C1353.4 585.216 1354.9 581.381 1356.8 578.094C1364.42 564.876 1378.23 556.688 1391.3 548.803C1404.36 540.917 1417.93 532.034 1424.44 518.232C1430.95 504.428 1423.82 491.544 1409.4 486.558Z" fill="#BAE0C8"/>
<path d="M1373.79 752.847C1371.11 743.709 1375.08 733.034 1383.08 727.868C1384.43 726.997 1386.03 726.248 1387.6 726.604C1388.71 726.856 1389.62 727.622 1390.42 728.419C1397.85 735.781 1399.45 748.323 1394.1 757.31C1395.41 752.682 1400.41 749.765 1405.22 749.736C1410.03 749.707 1414.57 752.053 1418.33 755.065C1422.74 758.612 1426.5 763.497 1427.01 769.14C1427.58 775.4 1423.97 781.511 1418.94 785.283C1413.92 789.057 1407.67 790.817 1401.46 791.841C1399.26 792.205 1396.93 792.476 1394.83 791.703C1389.42 789.71 1388.61 782.518 1388.71 776.752C1386.42 782.602 1383.99 788.655 1379.42 792.968C1374.85 797.278 1367.48 799.306 1362.18 795.927C1358.58 793.631 1356.63 789.221 1356.73 784.954C1356.83 780.687 1358.76 776.602 1361.51 773.335C1359.92 768.131 1358.56 759.042 1361.86 754.721C1365.17 750.4 1370.54 748.483 1373.79 752.847Z" fill="#BAE0C8"/>
<path d="M1601.02 923.248C1605.77 915.461 1610.7 906.278 1607.65 897.679C1605.45 891.448 1599.62 887.382 1594.48 883.228C1580.92 872.276 1569.48 855.467 1573.14 838.427C1576.07 824.741 1588.12 814.667 1601 809.184C1610 805.355 1621.16 803.496 1629 809.343C1621.44 803.431 1613.74 797.363 1608.53 789.3C1603.33 781.24 1601 770.669 1604.97 761.937C1607.75 755.848 1613.5 749.715 1610.96 743.524C1608.25 736.919 1599.09 737.131 1592.22 735.211C1583.65 732.818 1577.07 725.623 1573.29 717.569C1569.5 709.516 1569.5 704.534 1568.14 695.739C1556.33 702.476 1543.58 709.435 1530.02 708.346C1522.08 707.709 1514.66 704.333 1507.42 701C1496.43 695.939 1485.35 690.804 1475.7 683.495C1466.06 676.186 1457.83 666.427 1454.52 654.787C1449.9 638.54 1455.37 621.095 1463.11 606.078C1464.82 602.753 1466.77 599.352 1469.9 597.321C1473.04 595.289 1477.71 595.131 1480.17 597.946C1458.25 591.177 1442.17 570.486 1437.75 547.97C1433.32 525.456 1439.47 501.712 1451.34 482.074C1455.72 474.821 1460.9 467.992 1467.2 462.325C1475.1 455.222 1484.57 450.097 1494.27 445.769C1511.65 438.012 1530.08 432.603 1548.9 429.732C1557.41 428.435 1567.63 428.311 1572.84 435.165C1591.65 404.3 1627.52 381.151 1663.33 386.105C1699.14 391.06 1730.77 418.689 1740.49 453.503C1741.95 458.723 1743.01 464.19 1745.93 468.756C1756.49 485.274 1782.26 480.09 1799.4 489.624C1810.5 495.805 1817.1 507.873 1820.83 520.026C1827.29 541.111 1826.6 564.76 1816.67 584.456C1806.75 604.152 1787.08 619.219 1765.13 621.395C1782.58 625.892 1788.57 650.04 1779.98 665.875C1771.39 681.71 1753.53 690.143 1736.12 694.792C1718.72 699.441 1700.4 701.446 1684.18 709.296C1677.34 712.613 1670.76 717.166 1666.99 723.778C1663.23 730.391 1662.93 739.393 1667.86 745.188C1672.77 750.956 1681.02 752.111 1688.25 754.351C1695.49 756.592 1703.31 762.029 1702.67 769.574C1702.41 772.673 1700.69 775.655 1701.18 778.727C1702.02 783.903 1708.6 786.048 1713.75 785.099C1718.91 784.151 1723.61 781.271 1728.83 780.713C1739.74 779.54 1749.61 789.683 1750.87 800.593C1752.12 811.502 1746.54 822.245 1738.9 830.135C1732.15 837.115 1723.52 842.499 1713.98 844.361C1706.51 845.819 1698.81 845.098 1691.21 845.475C1683.6 845.854 1675.59 847.581 1670.15 852.904C1664.71 858.228 1663.17 868.012 1668.61 873.331C1676.23 880.776 1679.03 888.854 1683.48 898.536C1687.93 908.216 1690.23 919.225 1687.89 929.616C1685.86 938.561 1680.61 946.385 1675.34 953.891C1673.11 957.052 1670.84 960.239 1667.87 962.717C1655.16 973.335 1634.61 967.797 1621.02 977.267C1608.6 985.926 1607.16 1005.54 1616.17 1017.71C1625.19 1029.88 1641.98 1034.61 1656.88 1031.95C1664.91 1030.52 1673.32 1027.26 1680.92 1030.22C1688.65 1033.23 1692.67 1041.65 1695.3 1049.52C1698.5 1059.15 1700.72 1069.11 1701.91 1079.19C1695.7 1071.38 1689.4 1063.49 1681.5 1057.4C1673.6 1051.3 1663.8 1047.09 1653.84 1047.78C1646.71 1048.27 1640.01 1051.19 1633.16 1053.26C1626.32 1055.32 1618.71 1056.49 1612.18 1053.56C1605.65 1050.64 1601.21 1042.3 1604.65 1036.03C1589.8 1046.03 1566.71 1039.81 1558.91 1023.7C1551.1 1007.59 1560.53 985.608 1577.58 980.157C1569.71 970.697 1567.3 957.004 1571.44 945.421C1575.59 933.84 1588.94 925.564 1601.02 923.248Z" fill="#BAE0C8"/>
<path d="M228.071 854.776C209.827 853.568 192.765 871.333 194.706 889.513C195.51 897.053 198.989 904.017 200.96 911.338C203.564 921.004 203.489 931.377 200.747 941.005C197.622 951.974 191.204 961.734 187.568 972.543C183.93 983.354 183.683 996.591 191.59 1004.81C182.943 991.974 178.505 976.351 179.11 960.885C179.694 945.979 184.675 930.286 178.58 916.669C173.686 905.737 162.769 898.94 155.07 889.764C145.218 878.02 140.806 861.888 143.312 846.765C129.889 852.088 115.189 855.38 100.986 852.777C86.7837 850.173 73.2433 840.75 68.7329 827.033C66.8171 821.206 66.5814 814.942 67.0935 808.831C68.3012 794.405 75.0266 778.919 88.5166 773.668C90.8623 772.755 93.5943 771.979 94.757 769.746C95.443 768.429 95.4142 766.871 95.3818 765.386C94.8289 739.997 97.8469 714.281 106.939 690.569C116.031 666.857 131.483 645.203 152.581 631.07C167.853 620.841 186.379 614.684 204.652 616.668C222.926 618.653 240.624 629.631 248.135 646.407C254.296 640.886 263.959 636.811 272.23 636.639C290.45 636.261 309.388 645.066 318.141 661.05C326.895 677.035 322.835 699.801 307.393 709.479C323.083 704.982 339.465 715.235 349.698 727.952C355.955 735.724 360.97 744.899 361.806 754.843C362.899 767.828 356.721 780.484 348.41 790.521C338.419 802.586 324.918 811.981 309.729 815.817C294.54 819.652 277.694 817.614 264.54 809.106C269.305 819.47 267.975 832.379 261.198 841.555C254.422 850.732 239.453 855.529 228.071 854.776Z" fill="#BAE0C8"/>
<path d="M75.361 756.568C67.7031 742.103 65.0473 725.048 67.9441 708.938C68.3411 706.731 68.8693 704.471 70.1945 702.662C72.5769 699.408 76.8786 698.367 80.3661 696.344C89.1435 691.253 92.246 678.409 86.7624 669.872C86.1855 668.974 85.508 668.055 85.475 666.989C85.3964 664.455 88.5763 663.41 90.9472 662.516C98.9607 659.49 103.18 649.052 99.5214 641.308C96.7439 635.427 90.5185 631.842 84.199 630.303C72.3892 627.428 58.7721 631.177 51.3792 640.825C43.9864 650.473 44.4457 665.811 53.5014 673.919C46.7021 675.422 41.2904 681.796 40.9121 688.749C40.5331 695.703 45.2192 702.627 51.8164 704.86C53.7136 710.87 48.3451 714.981 49.867 721.098C50.2172 722.508 50.8762 723.822 51.5543 725.107C57.4427 736.275 66.1326 747.955 75.361 756.568Z" fill="#BAE0C8"/>
<path d="M543.016 829.743C532.49 846.005 525.482 864.533 522.615 883.69C531.152 866.659 541.817 850.695 554.286 836.289C552.574 840.746 552.679 845.871 554.568 850.255C555.345 852.057 556.912 853.978 558.839 853.612C559.78 853.433 560.527 852.733 561.176 852.032C568.291 844.362 571.792 832.037 581.907 829.37C580.099 839.412 580.997 849.928 584.481 859.518C593.566 843.478 602.651 827.438 611.736 811.398C617.312 818.919 628.511 824.593 637.844 825.321C647.177 826.051 656.591 823.268 664.612 818.441C673.583 813.043 681.137 804.804 684.213 794.795C687.288 784.787 685.335 773.013 678.033 765.509C683.571 767.484 689.62 764.312 694.067 760.467C702.719 752.988 708.734 742.31 709.841 730.927C710.949 719.543 706.905 707.6 698.556 699.783C696.666 692.985 692.385 685.419 687.059 680.79C681.1 675.609 673.631 672.523 666.184 669.891C654.729 665.844 642.825 662.642 630.677 662.376C618.53 662.109 606.046 664.969 596.22 672.117C587.796 678.246 581.406 689.423 585.569 698.974C582.281 696.694 578.067 696.309 574.067 696.251C559.115 696.035 543.731 699.605 531.792 708.607C519.852 717.61 511.919 732.558 513.56 747.42C515.119 761.534 524.549 773.363 533.754 784.175C526.305 785.494 519.024 788.606 513.635 793.916C508.244 799.225 504.944 806.88 505.809 814.396C506.656 821.75 511.61 828.496 518.374 831.505C525.139 834.516 536.986 834.038 543.016 829.743Z" fill="#BAE0C8"/>
<path d="M451.17 792.24C450.544 796.288 451.959 800.599 454.862 803.489C457.765 806.377 462.084 807.772 466.128 807.126C468.554 806.739 470.815 805.678 473.002 804.559C474.733 803.672 476.527 802.661 477.501 800.978C478.189 799.787 478.39 798.381 478.506 797.011C478.897 792.407 478.475 787.735 477.266 783.276C479.833 784.437 482.509 781.937 484.755 780.237C487.001 778.537 488.352 775.809 488.685 773.012C488.794 772.098 488.801 771.159 488.546 770.274C488.137 768.85 487.095 767.703 486.035 766.666C482.907 763.608 479.097 760.931 474.747 760.484C470.396 760.038 465.533 762.473 464.437 766.707C462.307 764.039 457.77 761.429 454.41 762.025C451.048 762.622 448.064 764.563 445.522 766.843C442.119 769.896 439.181 774.148 439.731 778.687C440.078 781.561 441.812 784.128 443.992 786.033C446.175 787.938 448.561 790.983 451.17 792.24Z" fill="#BAE0C8"/>
</g>
</g>
</g>
<defs>
<clipPath id="clip0_1502_17436">
<rect width="1440" height="807" fill="white"/>
</clipPath>
</defs>
</svg>
