<svg width="35" height="35" viewBox="0 0 35 35" fill="none" xmlns="http://www.w3.org/2000/svg">
<path d="M30.4465 6.56052C29.7229 5.83661 28.8638 5.26235 27.9183 4.87055C26.9727 4.47876 25.9592 4.2771 24.9357 4.2771C23.9122 4.2771 22.8987 4.47876 21.9531 4.87055C21.0075 5.26235 20.1484 5.83661 19.4249 6.56052L17.9232 8.06219L16.4215 6.56052C14.96 5.09896 12.9776 4.27786 10.9107 4.27786C8.84372 4.27786 6.86141 5.09896 5.39985 6.56052C3.93829 8.02208 3.11719 10.0044 3.11719 12.0714C3.11719 14.1383 3.93829 16.1206 5.39985 17.5822L6.90152 19.0839L17.9232 30.1055L28.9449 19.0839L30.4465 17.5822C31.1704 16.8586 31.7447 15.9995 32.1365 15.0539C32.5283 14.1084 32.7299 13.0949 32.7299 12.0714C32.7299 11.0478 32.5283 10.0343 32.1365 9.08877C31.7447 8.1432 31.1704 7.28409 30.4465 6.56052V6.56052Z" stroke="black" stroke-width="2" stroke-linecap="round" stroke-linejoin="round"/>
</svg>
