<svg width="164" height="44" viewBox="0 0 164 44" fill="none" xmlns="http://www.w3.org/2000/svg">
<g clip-path="url(#clip0_2208_20577)">
<path d="M47.2405 19.1892H60.4577C60.9112 19.1892 61.236 19.6275 61.104 20.0614L60.3898 22.4093L55.5602 38.2839C55.5159 38.4295 55.4239 38.5558 55.2988 38.6425L50.014 42.3053C49.901 42.3838 49.7666 42.4257 49.6291 42.4257H41.0993C40.5218 42.4257 40.0574 42.2215 39.7051 41.8116C39.3536 41.4024 39.2531 40.9541 39.4037 40.467L45.5073 20.3512C45.6074 19.9976 45.8147 19.7154 46.129 19.5047C46.4429 19.2945 46.8132 19.1892 47.2405 19.1892ZM53.337 21.9443H51.8101C51.5127 21.9443 51.2503 22.1388 51.1638 22.4233L46.1867 38.7981C46.0549 39.2321 46.3795 39.6701 46.833 39.6701H48.3596C48.657 39.6701 48.9194 39.4756 49.0059 39.1911L53.983 22.8163C54.1153 22.3823 53.7905 21.9443 53.337 21.9443Z" fill="white"/>
<path d="M58.3922 42.4255C57.8148 42.4255 57.3503 42.2212 56.9981 41.8113C56.6466 41.4022 56.546 40.9539 56.6966 40.4668C57.576 37.5239 58.2357 35.3274 58.6746 33.8777C59.1138 32.4286 59.3529 31.6593 59.3905 31.5706C59.4282 31.4825 59.4594 31.3881 59.4846 31.2885C59.5094 31.1889 59.5535 31.0344 59.6164 30.8238C59.6789 30.6138 59.9744 29.6453 60.5018 27.9192C61.0291 26.1932 61.7951 23.6704 62.8 20.351C62.9001 19.9973 63.1074 19.7152 63.4218 19.5045C63.7354 19.2945 64.106 19.1892 64.5333 19.1892H77.7476C78.202 19.1892 78.5269 19.6289 78.3932 20.0633L75.1202 30.7077L72.3865 39.7314C72.3282 39.9239 72.3587 40.1324 72.4697 40.3002L73.1827 41.3769C73.4802 41.8259 73.1582 42.4255 72.6196 42.4255H58.3922ZM64.1253 39.6703H65.6531C65.9505 39.6703 66.2129 39.4759 66.2994 39.1913L71.2765 22.8165C71.4083 22.3826 71.0837 21.9446 70.6302 21.9446H69.1029C68.8057 21.9446 68.5435 22.1388 68.4568 22.4228L65.9279 30.708L63.4787 38.7993C63.3474 39.2328 63.672 39.6703 64.1253 39.6703Z" fill="white"/>
<path d="M81.3391 20.3512C81.4392 19.9976 81.6465 19.7154 81.9608 19.5047C82.2745 19.2948 82.645 19.1895 83.0723 19.1895H96.2866C96.7411 19.1895 97.0659 19.6291 96.9322 20.0636L93.9324 29.8203C93.7975 30.2585 93.2744 30.4382 92.8988 30.1749L88.9 27.3719C88.66 27.2036 88.5559 26.9 88.6421 26.6202L89.8113 22.8187C89.945 22.3842 89.6201 21.9446 89.1657 21.9446H87.6414C87.3443 21.9446 87.0821 22.1388 86.9954 22.4229L84.4664 30.708L82.7709 36.2513L82.0118 38.8022C81.8829 39.2352 82.2075 39.6704 82.6593 39.6704H84.1886C84.4874 39.6704 84.7507 39.474 84.8361 39.1875L85.566 36.7341C85.6513 36.4477 85.9146 36.2513 86.2135 36.2513H91.0862C91.5409 36.2513 91.8657 36.6915 91.7318 37.1261L90.928 39.7302C90.8682 39.9237 90.8984 40.1336 91.0102 40.3024L91.722 41.3771C92.0195 41.8261 91.6975 42.4257 91.1589 42.4257H76.9313C76.3539 42.4257 75.8894 42.2215 75.5372 41.8116C75.1857 41.4024 75.0851 40.9541 75.2357 40.467L81.3391 20.3512Z" fill="white"/>
<path d="M100.095 21.9443H98.3412C97.8867 21.9443 97.5619 21.5046 97.6954 21.0702L97.9165 20.351C98.0166 19.9973 98.2239 19.7152 98.5383 19.5045C98.8519 19.2945 99.2222 19.1892 99.6498 19.1892H110.786C111.242 19.1892 111.567 19.6322 111.43 20.0674L110.989 21.4715C110.9 21.753 110.639 21.9443 110.344 21.9443H107.799C107.502 21.9443 107.239 22.1388 107.153 22.4233L101.889 39.7354C101.831 39.9256 101.86 40.1317 101.968 40.2985L102.668 41.3831C102.959 41.8325 102.636 42.4252 102.101 42.4252H97.0877C96.5095 42.4252 96.0451 42.221 95.6936 41.8111C95.3413 41.4019 95.2415 40.9536 95.3921 40.4665L100.742 22.8156C100.873 22.3821 100.549 21.9443 100.095 21.9443Z" fill="white"/>
<path d="M107.748 42.4255C107.17 42.4255 106.706 42.2212 106.354 41.8113C106.002 41.4022 105.902 40.9539 106.052 40.4668C106.931 37.5239 107.591 35.3274 108.03 33.8777C108.469 32.4286 108.708 31.6593 108.746 31.5706C108.784 31.4825 108.815 31.3881 108.84 31.2885C108.865 31.1889 108.909 31.0344 108.972 30.8238C109.034 30.6138 109.33 29.6453 109.857 27.9192C110.385 26.1932 111.151 23.6704 112.155 20.351C112.256 19.9973 112.463 19.7152 112.777 19.5045C113.091 19.2945 113.461 19.1892 113.889 19.1892H127.103C127.558 19.1892 127.882 19.6289 127.749 20.0633L124.476 30.7077L121.742 39.7314C121.684 39.9239 121.714 40.1324 121.825 40.3002L122.538 41.3769C122.836 41.8259 122.514 42.4255 121.975 42.4255H107.748ZM113.481 39.6703H115.008C115.306 39.6703 115.568 39.4759 115.655 39.1913L120.632 22.8165C120.764 22.3826 120.439 21.9446 119.985 21.9446H118.458C118.161 21.9446 117.899 22.1388 117.812 22.4228L115.283 30.708L112.834 38.7993C112.703 39.2328 113.027 39.6703 113.481 39.6703Z" fill="white"/>
<path d="M130.695 20.3512C130.795 19.9976 131.002 19.7154 131.317 19.5047C131.63 19.2948 132.001 19.1895 132.428 19.1895H145.611C146.063 19.1895 146.388 19.626 146.257 20.0598L143.821 28.1528C143.764 28.342 143.627 28.4967 143.446 28.5763L139.574 30.2823C139.073 30.503 139.029 31.1972 139.498 31.4794L141.848 32.8928C142.113 33.0525 142.236 33.3725 142.146 33.6687L139.748 41.5273C139.613 41.9689 139.085 42.1481 138.709 41.88L134.707 39.0231C134.471 38.8546 134.369 38.5543 134.453 38.2767L135.856 33.6637C135.945 33.3697 135.825 33.0525 135.563 32.8916L135.069 32.5882C134.878 32.4712 134.642 32.456 134.438 32.548L133.349 33.0384C133.171 33.1187 133.036 33.2722 132.98 33.4593L131.087 39.7366C131.03 39.9265 131.059 40.1317 131.166 40.2983L131.868 41.3836C132.158 41.833 131.835 42.4257 131.3 42.4257H126.287C125.709 42.4257 125.245 42.2215 124.893 41.8116C124.541 41.4024 124.441 40.9432 124.591 40.4339C126.545 33.9743 127.561 30.6055 127.638 30.3281C127.641 30.3167 127.644 30.3078 127.648 30.2966C127.73 30.0626 128.746 26.7475 130.695 20.3512ZM138.522 21.9443H136.997C136.7 21.9443 136.438 22.1383 136.351 22.4221L134.48 28.5336C134.311 29.0865 134.87 29.5827 135.399 29.3496L137.157 28.5751C137.336 28.496 137.473 28.3427 137.53 28.1552L139.168 22.8182C139.301 22.3838 138.977 21.9443 138.522 21.9443Z" fill="white"/>
<path d="M143.502 42.4255C142.924 42.4255 142.459 42.2212 142.107 41.8113C141.756 41.4022 141.655 40.9539 141.806 40.4668L143.22 35.7654C143.345 35.3507 143.822 35.1589 144.199 35.3717L148.349 37.7143C148.621 37.8682 148.753 38.1895 148.665 38.4902L148.574 38.8067C148.449 39.2388 148.773 39.6701 149.223 39.6701H150.761C151.059 39.6701 151.322 39.4752 151.408 39.1904L153.26 33.0727C153.391 32.639 153.066 32.2015 152.613 32.2015H145.205C144.751 32.2015 144.426 31.7627 144.559 31.3288L147.91 20.3512C148.01 19.9976 148.217 19.7154 148.531 19.5047C148.845 19.2948 149.215 19.1895 149.643 19.1895H162.823C163.277 19.1895 163.601 19.627 163.47 20.0607L161.729 25.8143C161.6 26.2399 161.102 26.4269 160.725 26.192L156.643 23.6494C156.382 23.4862 156.264 23.1664 156.357 22.8721L156.372 22.8242C156.51 22.3888 156.185 21.9448 155.728 21.9448H154.211C153.914 21.9448 153.652 22.1383 153.565 22.4217L151.683 28.5393C151.549 28.9738 151.874 29.4135 152.328 29.4135H159.732C160.186 29.4135 160.511 29.8519 160.378 30.2862L157.497 39.7314C157.438 39.9242 157.469 40.1332 157.58 40.3014L158.293 41.3774C158.59 41.8263 158.268 42.4259 157.729 42.4259H143.502V42.4255Z" fill="white"/>
<path d="M47.2405 19.1892H60.4577C60.9112 19.1892 61.236 19.6275 61.104 20.0614L60.3898 22.4093L55.5602 38.2839C55.5159 38.4295 55.4239 38.5558 55.2988 38.6425L50.014 42.3053C49.901 42.3838 49.7666 42.4257 49.6291 42.4257H41.0993C40.5218 42.4257 40.0574 42.2215 39.7051 41.8116C39.3536 41.4024 39.2531 40.9541 39.4037 40.467L45.5073 20.3512C45.6074 19.9976 45.8147 19.7154 46.129 19.5047C46.4429 19.2945 46.8132 19.1892 47.2405 19.1892ZM53.337 21.9443H51.8101C51.5127 21.9443 51.2503 22.1388 51.1638 22.4233L46.1867 38.7981C46.0549 39.2321 46.3795 39.6701 46.833 39.6701H48.3596C48.657 39.6701 48.9194 39.4756 49.0059 39.1911L53.983 22.8163C54.1153 22.3823 53.7905 21.9443 53.337 21.9443Z" fill="white"/>
<path d="M58.3922 42.4255C57.8148 42.4255 57.3503 42.2212 56.9981 41.8113C56.6466 41.4022 56.546 40.9539 56.6966 40.4668C57.576 37.5239 58.2357 35.3274 58.6746 33.8777C59.1138 32.4286 59.3529 31.6593 59.3905 31.5706C59.4282 31.4825 59.4594 31.3881 59.4846 31.2885C59.5094 31.1889 59.5535 31.0344 59.6164 30.8238C59.6789 30.6138 59.9744 29.6453 60.5018 27.9192C61.0291 26.1932 61.7951 23.6704 62.8 20.351C62.9001 19.9973 63.1074 19.7152 63.4218 19.5045C63.7354 19.2945 64.106 19.1892 64.5333 19.1892H77.7476C78.202 19.1892 78.5269 19.6289 78.3932 20.0633L75.1202 30.7077L72.3865 39.7314C72.3282 39.9239 72.3587 40.1324 72.4697 40.3002L73.1827 41.3769C73.4802 41.8259 73.1582 42.4255 72.6196 42.4255H58.3922ZM64.1253 39.6703H65.6531C65.9505 39.6703 66.2129 39.4759 66.2994 39.1913L71.2765 22.8165C71.4083 22.3826 71.0837 21.9446 70.6302 21.9446H69.1029C68.8057 21.9446 68.5435 22.1388 68.4568 22.4228L65.9279 30.708L63.4787 38.7993C63.3474 39.2328 63.672 39.6703 64.1253 39.6703Z" fill="white"/>
<path d="M81.3391 20.3512C81.4392 19.9976 81.6465 19.7154 81.9608 19.5047C82.2745 19.2948 82.645 19.1895 83.0723 19.1895H96.2866C96.7411 19.1895 97.0659 19.6291 96.9322 20.0636L93.9324 29.8203C93.7975 30.2585 93.2744 30.4382 92.8988 30.1749L88.9 27.3719C88.66 27.2036 88.5559 26.9 88.6421 26.6202L89.8113 22.8187C89.945 22.3842 89.6201 21.9446 89.1657 21.9446H87.6414C87.3443 21.9446 87.0821 22.1388 86.9954 22.4229L84.4664 30.708L82.7709 36.2513L82.0118 38.8022C81.8829 39.2352 82.2075 39.6704 82.6593 39.6704H84.1886C84.4874 39.6704 84.7507 39.474 84.8361 39.1875L85.566 36.7341C85.6513 36.4477 85.9146 36.2513 86.2135 36.2513H91.0862C91.5409 36.2513 91.8657 36.6915 91.7318 37.1261L90.928 39.7302C90.8682 39.9237 90.8984 40.1336 91.0102 40.3024L91.722 41.3771C92.0195 41.8261 91.6975 42.4257 91.1589 42.4257H76.9313C76.3539 42.4257 75.8894 42.2215 75.5372 41.8116C75.1857 41.4024 75.0851 40.9541 75.2357 40.467L81.3391 20.3512Z" fill="white"/>
<path d="M100.095 21.9443H98.3412C97.8867 21.9443 97.5619 21.5046 97.6954 21.0702L97.9165 20.351C98.0166 19.9973 98.2239 19.7152 98.5383 19.5045C98.8519 19.2945 99.2222 19.1892 99.6498 19.1892H110.786C111.242 19.1892 111.567 19.6322 111.43 20.0674L110.989 21.4715C110.9 21.753 110.639 21.9443 110.344 21.9443H107.799C107.502 21.9443 107.239 22.1388 107.153 22.4233L101.889 39.7354C101.831 39.9256 101.86 40.1317 101.968 40.2985L102.668 41.3831C102.959 41.8325 102.636 42.4252 102.101 42.4252H97.0877C96.5095 42.4252 96.0451 42.221 95.6936 41.8111C95.3413 41.4019 95.2415 40.9536 95.3921 40.4665L100.742 22.8156C100.873 22.3821 100.549 21.9443 100.095 21.9443Z" fill="white"/>
<path d="M107.748 42.4255C107.17 42.4255 106.706 42.2212 106.354 41.8113C106.002 41.4022 105.902 40.9539 106.052 40.4668C106.931 37.5239 107.591 35.3274 108.03 33.8777C108.469 32.4286 108.708 31.6593 108.746 31.5706C108.784 31.4825 108.815 31.3881 108.84 31.2885C108.865 31.1889 108.909 31.0344 108.972 30.8238C109.034 30.6138 109.33 29.6453 109.857 27.9192C110.385 26.1932 111.151 23.6704 112.155 20.351C112.256 19.9973 112.463 19.7152 112.777 19.5045C113.091 19.2945 113.461 19.1892 113.889 19.1892H127.103C127.558 19.1892 127.882 19.6289 127.749 20.0633L124.476 30.7077L121.742 39.7314C121.684 39.9239 121.714 40.1324 121.825 40.3002L122.538 41.3769C122.836 41.8259 122.514 42.4255 121.975 42.4255H107.748ZM113.481 39.6703H115.008C115.306 39.6703 115.568 39.4759 115.655 39.1913L120.632 22.8165C120.764 22.3826 120.439 21.9446 119.985 21.9446H118.458C118.161 21.9446 117.899 22.1388 117.812 22.4228L115.283 30.708L112.834 38.7993C112.703 39.2328 113.027 39.6703 113.481 39.6703Z" fill="white"/>
<path d="M130.695 20.3512C130.795 19.9976 131.002 19.7154 131.317 19.5047C131.63 19.2948 132.001 19.1895 132.428 19.1895H145.611C146.063 19.1895 146.388 19.626 146.257 20.0598L143.821 28.1528C143.764 28.342 143.627 28.4967 143.446 28.5763L139.574 30.2823C139.073 30.503 139.029 31.1972 139.498 31.4794L141.848 32.8928C142.113 33.0525 142.236 33.3725 142.146 33.6687L139.748 41.5273C139.613 41.9689 139.085 42.1481 138.709 41.88L134.707 39.0231C134.471 38.8546 134.369 38.5543 134.453 38.2767L135.856 33.6637C135.945 33.3697 135.825 33.0525 135.563 32.8916L135.069 32.5882C134.878 32.4712 134.642 32.456 134.438 32.548L133.349 33.0384C133.171 33.1187 133.036 33.2722 132.98 33.4593L131.087 39.7366C131.03 39.9265 131.059 40.1317 131.166 40.2983L131.868 41.3836C132.158 41.833 131.835 42.4257 131.3 42.4257H126.287C125.709 42.4257 125.245 42.2215 124.893 41.8116C124.541 41.4024 124.441 40.9432 124.591 40.4339C126.545 33.9743 127.561 30.6055 127.638 30.3281C127.641 30.3167 127.644 30.3078 127.648 30.2966C127.73 30.0626 128.746 26.7475 130.695 20.3512ZM138.522 21.9443H136.997C136.7 21.9443 136.438 22.1383 136.351 22.4221L134.48 28.5336C134.311 29.0865 134.87 29.5827 135.399 29.3496L137.157 28.5751C137.336 28.496 137.473 28.3427 137.53 28.1552L139.168 22.8182C139.301 22.3838 138.977 21.9443 138.522 21.9443Z" fill="white"/>
<path d="M143.502 42.4255C142.924 42.4255 142.459 42.2212 142.107 41.8113C141.756 41.4022 141.655 40.9539 141.806 40.4668L143.22 35.7654C143.345 35.3507 143.822 35.1589 144.199 35.3717L148.349 37.7143C148.621 37.8682 148.753 38.1895 148.665 38.4902L148.574 38.8067C148.449 39.2388 148.773 39.6701 149.223 39.6701H150.761C151.059 39.6701 151.322 39.4752 151.408 39.1904L153.26 33.0727C153.391 32.639 153.066 32.2015 152.613 32.2015H145.205C144.751 32.2015 144.426 31.7627 144.559 31.3288L147.91 20.3512C148.01 19.9976 148.217 19.7154 148.531 19.5047C148.845 19.2948 149.215 19.1895 149.643 19.1895H162.823C163.277 19.1895 163.601 19.627 163.47 20.0607L161.729 25.8143C161.6 26.2399 161.102 26.4269 160.725 26.192L156.643 23.6494C156.382 23.4862 156.264 23.1664 156.357 22.8721L156.372 22.8242C156.51 22.3888 156.185 21.9448 155.728 21.9448H154.211C153.914 21.9448 153.652 22.1383 153.565 22.4217L151.683 28.5393C151.549 28.9738 151.874 29.4135 152.328 29.4135H159.732C160.186 29.4135 160.511 29.8519 160.378 30.2862L157.497 39.7314C157.438 39.9242 157.469 40.1332 157.58 40.3014L158.293 41.3774C158.59 41.8263 158.268 42.4259 157.729 42.4259H143.502V42.4255Z" fill="white"/>
<path d="M42.0726 31.5812C42.0681 31.555 42.0619 31.5281 42.0548 31.5024C38.4496 18.5976 22.7199 24.1886 21.4766 24.6407C20.2322 25.0932 20.6847 24.6407 20.6847 24.6407L30.0704 15.2551C30.1824 15.143 30.2515 14.9951 30.2655 14.8373L30.603 11.0403C30.6466 10.5498 30.1676 10.179 29.7038 10.3439L3.65267 19.6071C3.30211 19.7317 3.11838 20.1166 3.24182 20.4676L4.07996 22.8507C4.20388 23.203 4.59018 23.3879 4.94217 23.2635L8.60119 21.9709C9.26989 21.7347 9.80418 22.5567 9.31708 23.0719L5.63065 26.9711C5.46169 27.1499 5.40306 27.4065 5.47813 27.6408L6.0751 29.5096C6.16351 29.7865 6.41922 29.9755 6.70996 29.9796C7.59242 29.9919 9.38142 30.0453 9.52369 30.2777C9.60376 30.4085 9.01204 30.7279 8.88669 30.7936C8.87072 30.802 8.85571 30.8105 8.84046 30.8203L2.24306 34.9641C2.09912 35.0546 1.9945 35.1959 1.95018 35.3601L0.524603 40.6432C0.367318 41.2262 0.995505 41.7071 1.51717 41.4027L2.13225 41.0441C7.90175 37.3109 13.2185 38.838 21.0808 41.7795C28.1899 44.4391 30.9519 43.9076 31.4159 43.7813C31.469 43.7668 31.521 43.7594 31.576 43.7584C32.6961 43.7399 44.1381 43.267 42.0726 31.5812ZM23.8352 34.8866C21.4969 34.6161 19.1483 33.4158 17.6787 32.5257C17.1208 32.1877 17.3226 31.3298 17.9728 31.2762C19.762 31.1289 22.6227 31.1487 25.3397 32.2607C29.8008 34.0866 26.271 35.1685 23.8352 34.8866Z" fill="white"/>
<path d="M5.5824 11.6033L7.38045 15.1704C7.53368 15.4742 7.88877 15.6167 8.20953 15.503L17.9112 12.063C18.2446 11.9448 18.4302 11.5897 18.337 11.2485L17.2684 7.33207C17.1054 6.73511 16.2923 6.65313 16.0135 7.20577L15.0085 9.19852C14.8146 9.58316 14.3151 9.6904 13.9802 9.41944L10.6985 6.76251C10.274 6.41911 9.63868 6.69459 9.5996 7.23913L9.34199 10.8255C9.30981 11.2744 8.85583 11.5669 8.43378 11.4105L6.41982 10.6653C5.84454 10.4528 5.30619 11.0554 5.5824 11.6033Z" fill="white"/>
<path d="M42.0726 31.5812C42.0681 31.555 42.0619 31.5281 42.0548 31.5024C38.4496 18.5976 22.7199 24.1886 21.4766 24.6407C20.2322 25.0932 20.6847 24.6407 20.6847 24.6407L30.0704 15.2551C30.1824 15.143 30.2515 14.9951 30.2655 14.8373L30.603 11.0403C30.6466 10.5498 30.1676 10.179 29.7038 10.3439L3.65267 19.6071C3.30211 19.7317 3.11838 20.1166 3.24182 20.4676L4.07996 22.8507C4.20388 23.203 4.59018 23.3879 4.94217 23.2635L8.60119 21.9709C9.26989 21.7347 9.80418 22.5567 9.31708 23.0719L5.63065 26.9711C5.46169 27.1499 5.40306 27.4065 5.47813 27.6408L6.0751 29.5096C6.16351 29.7865 6.41922 29.9755 6.70996 29.9796C7.59242 29.9919 9.38142 30.0453 9.52369 30.2777C9.60376 30.4085 9.01204 30.7279 8.88669 30.7936C8.87072 30.802 8.85571 30.8105 8.84046 30.8203L2.24306 34.9641C2.09912 35.0546 1.9945 35.1959 1.95018 35.3601L0.524603 40.6432C0.367318 41.2262 0.995505 41.7071 1.51717 41.4027L2.13225 41.0441C7.90175 37.3109 13.2185 38.838 21.0808 41.7795C28.1899 44.4391 30.9519 43.9076 31.4159 43.7813C31.469 43.7668 31.521 43.7594 31.576 43.7584C32.6961 43.7399 44.1381 43.267 42.0726 31.5812ZM23.8352 34.8866C21.4969 34.6161 19.1483 33.4158 17.6787 32.5257C17.1208 32.1877 17.3226 31.3298 17.9728 31.2762C19.762 31.1289 22.6227 31.1487 25.3397 32.2607C29.8008 34.0866 26.271 35.1685 23.8352 34.8866Z" fill="white"/>
<path d="M5.5824 11.6033L7.38045 15.1704C7.53368 15.4742 7.88877 15.6167 8.20953 15.503L17.9112 12.063C18.2446 11.9448 18.4302 11.5897 18.337 11.2485L17.2684 7.33207C17.1054 6.73511 16.2923 6.65313 16.0135 7.20577L15.0085 9.19852C14.8146 9.58316 14.3151 9.6904 13.9802 9.41944L10.6985 6.76251C10.274 6.41911 9.63868 6.69459 9.5996 7.23913L9.34199 10.8255C9.30981 11.2744 8.85583 11.5669 8.43378 11.4105L6.41982 10.6653C5.84454 10.4528 5.30619 11.0554 5.5824 11.6033Z" fill="white"/>
<path d="M42.0726 31.5812C42.0681 31.555 42.0619 31.5281 42.0548 31.5024C38.4496 18.5976 22.7199 24.1886 21.4766 24.6407C20.2322 25.0932 20.6847 24.6407 20.6847 24.6407L30.0704 15.2551C30.1824 15.143 30.2515 14.9951 30.2655 14.8373L30.603 11.0403C30.6466 10.5498 30.1676 10.179 29.7038 10.3439L3.65267 19.6071C3.30211 19.7317 3.11838 20.1166 3.24182 20.4676L4.07996 22.8507C4.20388 23.203 4.59018 23.3879 4.94217 23.2635L8.60119 21.9709C9.26989 21.7347 9.80418 22.5567 9.31708 23.0719L5.63065 26.9711C5.46169 27.1499 5.40306 27.4065 5.47813 27.6408L6.0751 29.5096C6.16351 29.7865 6.41922 29.9755 6.70996 29.9796C7.59242 29.9919 9.38142 30.0453 9.52369 30.2777C9.60376 30.4085 9.01204 30.7279 8.88669 30.7936C8.87072 30.802 8.85571 30.8105 8.84046 30.8203L2.24306 34.9641C2.09912 35.0546 1.9945 35.1959 1.95018 35.3601L0.524603 40.6432C0.367318 41.2262 0.995505 41.7071 1.51717 41.4027L2.13225 41.0441C7.90175 37.3109 13.2185 38.838 21.0808 41.7795C28.1899 44.4391 30.9519 43.9076 31.4159 43.7813C31.469 43.7668 31.521 43.7594 31.576 43.7584C32.6961 43.7399 44.1381 43.267 42.0726 31.5812ZM23.8352 34.8866C21.4969 34.6161 19.1483 33.4158 17.6787 32.5257C17.1208 32.1877 17.3226 31.3298 17.9728 31.2762C19.762 31.1289 22.6227 31.1487 25.3397 32.2607C29.8008 34.0866 26.271 35.1685 23.8352 34.8866Z" fill="white"/>
<path d="M5.5824 11.6033L7.38045 15.1704C7.53368 15.4742 7.88877 15.6167 8.20953 15.503L17.9112 12.063C18.2446 11.9448 18.4302 11.5897 18.337 11.2485L17.2684 7.33207C17.1054 6.73511 16.2923 6.65313 16.0135 7.20577L15.0085 9.19852C14.8146 9.58316 14.3151 9.6904 13.9802 9.41944L10.6985 6.76251C10.274 6.41911 9.63868 6.69459 9.5996 7.23913L9.34199 10.8255C9.30981 11.2744 8.85583 11.5669 8.43378 11.4105L6.41982 10.6653C5.84454 10.4528 5.30619 11.0554 5.5824 11.6033Z" fill="white"/>
</g>
<defs>
<clipPath id="clip0_2208_20577">
<rect width="163" height="43.909" fill="white" transform="translate(0.5)"/>
</clipPath>
</defs>
</svg>
