<svg width="15" height="15" viewBox="0 0 15 15" fill="none" xmlns="http://www.w3.org/2000/svg">
<g clip-path="url(#clip0_1518_17632)">
<path d="M12.9626 2.97978C12.6689 2.68588 12.3201 2.45274 11.9362 2.29367C11.5523 2.13461 11.1408 2.05273 10.7253 2.05273C10.3098 2.05273 9.89828 2.13461 9.51439 2.29367C9.1305 2.45274 8.78171 2.68588 8.48795 2.97978L7.87828 3.58944L7.26862 2.97978C6.67524 2.3864 5.87044 2.05304 5.03127 2.05304C4.19211 2.05304 3.38731 2.3864 2.79393 2.97978C2.20055 3.57316 1.86719 4.37796 1.86719 5.21713C1.86719 6.0563 2.20055 6.86109 2.79393 7.45447L3.40359 8.06414L7.87828 12.5388L12.353 8.06414L12.9626 7.45447C13.2565 7.16071 13.4897 6.81192 13.6487 6.42803C13.8078 6.04414 13.8897 5.63267 13.8897 5.21713C13.8897 4.80159 13.8078 4.39012 13.6487 4.00623C13.4897 3.62233 13.2565 3.27354 12.9626 2.97978V2.97978Z" stroke="black" stroke-width="2" stroke-linecap="round" stroke-linejoin="round"/>
</g>
<defs>
<clipPath id="clip0_1518_17632">
<rect width="13.8037" height="13.8037" fill="white" transform="translate(0.976562 0.328369)"/>
</clipPath>
</defs>
</svg>
