<svg width="163" height="44" viewBox="0 0 163 44" fill="none" xmlns="http://www.w3.org/2000/svg">
<g clip-path="url(#clip0_1502_17518)">
<path d="M46.7405 19.1892H59.9577C60.4112 19.1892 60.736 19.6275 60.604 20.0614L59.8898 22.4093L55.0602 38.2839C55.0159 38.4295 54.9239 38.5558 54.7988 38.6425L49.514 42.3053C49.401 42.3838 49.2666 42.4257 49.1291 42.4257H40.5993C40.0218 42.4257 39.5574 42.2215 39.2051 41.8116C38.8536 41.4024 38.7531 40.9541 38.9037 40.467L45.0073 20.3512C45.1074 19.9976 45.3147 19.7154 45.629 19.5047C45.9429 19.2945 46.3132 19.1892 46.7405 19.1892ZM52.837 21.9443H51.3101C51.0127 21.9443 50.7503 22.1388 50.6638 22.4233L45.6867 38.7981C45.5549 39.2321 45.8795 39.6701 46.333 39.6701H47.8596C48.157 39.6701 48.4194 39.4756 48.5059 39.1911L53.483 22.8163C53.6153 22.3823 53.2905 21.9443 52.837 21.9443Z" fill="#010101"/>
<path d="M57.8922 42.4255C57.3148 42.4255 56.8503 42.2212 56.4981 41.8113C56.1466 41.4022 56.046 40.9539 56.1966 40.4668C57.076 37.5239 57.7357 35.3274 58.1746 33.8777C58.6138 32.4286 58.8529 31.6593 58.8905 31.5706C58.9282 31.4825 58.9594 31.3881 58.9846 31.2885C59.0094 31.1889 59.0535 31.0344 59.1164 30.8238C59.1789 30.6138 59.4744 29.6453 60.0018 27.9192C60.5291 26.1932 61.2951 23.6704 62.3 20.351C62.4001 19.9973 62.6074 19.7152 62.9218 19.5045C63.2354 19.2945 63.606 19.1892 64.0333 19.1892H77.2476C77.702 19.1892 78.0269 19.6289 77.8932 20.0633L74.6202 30.7077L71.8865 39.7314C71.8282 39.9239 71.8587 40.1324 71.9697 40.3002L72.6827 41.3769C72.9802 41.8259 72.6582 42.4255 72.1196 42.4255H57.8922ZM63.6253 39.6703H65.1531C65.4505 39.6703 65.7129 39.4759 65.7994 39.1913L70.7765 22.8165C70.9083 22.3826 70.5837 21.9446 70.1302 21.9446H68.6029C68.3057 21.9446 68.0435 22.1388 67.9568 22.4228L65.4279 30.708L62.9787 38.7993C62.8474 39.2328 63.172 39.6703 63.6253 39.6703Z" fill="#010101"/>
<path d="M80.8391 20.3512C80.9392 19.9976 81.1465 19.7154 81.4608 19.5047C81.7745 19.2948 82.145 19.1895 82.5723 19.1895H95.7866C96.2411 19.1895 96.5659 19.6291 96.4322 20.0636L93.4324 29.8203C93.2975 30.2585 92.7744 30.4382 92.3988 30.1749L88.4 27.3719C88.16 27.2036 88.0559 26.9 88.1421 26.6202L89.3113 22.8187C89.445 22.3842 89.1201 21.9446 88.6657 21.9446H87.1414C86.8443 21.9446 86.5821 22.1388 86.4954 22.4229L83.9664 30.708L82.2709 36.2513L81.5118 38.8022C81.3829 39.2352 81.7075 39.6704 82.1593 39.6704H83.6886C83.9874 39.6704 84.2507 39.474 84.3361 39.1875L85.066 36.7341C85.1513 36.4477 85.4146 36.2513 85.7135 36.2513H90.5862C91.0409 36.2513 91.3657 36.6915 91.2318 37.1261L90.428 39.7302C90.3682 39.9237 90.3984 40.1336 90.5102 40.3024L91.222 41.3771C91.5195 41.8261 91.1975 42.4257 90.6589 42.4257H76.4313C75.8539 42.4257 75.3894 42.2215 75.0372 41.8116C74.6857 41.4024 74.5851 40.9541 74.7357 40.467L80.8391 20.3512Z" fill="#010101"/>
<path d="M99.5954 21.9443H97.8412C97.3867 21.9443 97.0619 21.5046 97.1954 21.0702L97.4165 20.351C97.5166 19.9973 97.7239 19.7152 98.0383 19.5045C98.3519 19.2945 98.7222 19.1892 99.1498 19.1892H110.286C110.742 19.1892 111.067 19.6322 110.93 20.0674L110.489 21.4715C110.4 21.753 110.139 21.9443 109.844 21.9443H107.299C107.002 21.9443 106.739 22.1388 106.653 22.4233L101.389 39.7354C101.331 39.9256 101.36 40.1317 101.468 40.2985L102.168 41.3831C102.459 41.8325 102.136 42.4252 101.601 42.4252H96.5877C96.0095 42.4252 95.5451 42.221 95.1936 41.8111C94.8413 41.4019 94.7415 40.9536 94.8921 40.4665L100.242 22.8156C100.373 22.3821 100.049 21.9443 99.5954 21.9443Z" fill="#010101"/>
<path d="M107.248 42.4255C106.67 42.4255 106.206 42.2212 105.854 41.8113C105.502 41.4022 105.402 40.9539 105.552 40.4668C106.431 37.5239 107.091 35.3274 107.53 33.8777C107.969 32.4286 108.208 31.6593 108.246 31.5706C108.284 31.4825 108.315 31.3881 108.34 31.2885C108.365 31.1889 108.409 31.0344 108.472 30.8238C108.534 30.6138 108.83 29.6453 109.357 27.9192C109.885 26.1932 110.651 23.6704 111.655 20.351C111.756 19.9973 111.963 19.7152 112.277 19.5045C112.591 19.2945 112.961 19.1892 113.389 19.1892H126.603C127.058 19.1892 127.382 19.6289 127.249 20.0633L123.976 30.7077L121.242 39.7314C121.184 39.9239 121.214 40.1324 121.325 40.3002L122.038 41.3769C122.336 41.8259 122.014 42.4255 121.475 42.4255H107.248ZM112.981 39.6703H114.508C114.806 39.6703 115.068 39.4759 115.155 39.1913L120.132 22.8165C120.264 22.3826 119.939 21.9446 119.485 21.9446H117.958C117.661 21.9446 117.399 22.1388 117.312 22.4228L114.783 30.708L112.334 38.7993C112.203 39.2328 112.527 39.6703 112.981 39.6703Z" fill="#010101"/>
<path d="M130.195 20.3512C130.295 19.9976 130.502 19.7154 130.817 19.5047C131.13 19.2948 131.501 19.1895 131.928 19.1895H145.111C145.563 19.1895 145.888 19.626 145.757 20.0598L143.321 28.1528C143.264 28.342 143.127 28.4967 142.946 28.5763L139.074 30.2823C138.573 30.503 138.529 31.1972 138.998 31.4794L141.348 32.8928C141.613 33.0525 141.736 33.3725 141.646 33.6687L139.248 41.5273C139.113 41.9689 138.585 42.1481 138.209 41.88L134.207 39.0231C133.971 38.8546 133.869 38.5543 133.953 38.2767L135.356 33.6637C135.445 33.3697 135.325 33.0525 135.063 32.8916L134.569 32.5882C134.378 32.4712 134.142 32.456 133.938 32.548L132.849 33.0384C132.671 33.1187 132.536 33.2722 132.48 33.4593L130.587 39.7366C130.53 39.9265 130.559 40.1317 130.666 40.2983L131.368 41.3836C131.658 41.833 131.335 42.4257 130.8 42.4257H125.787C125.209 42.4257 124.745 42.2215 124.393 41.8116C124.041 41.4024 123.941 40.9432 124.091 40.4339C126.045 33.9743 127.061 30.6055 127.138 30.3281C127.141 30.3167 127.144 30.3078 127.148 30.2966C127.23 30.0626 128.246 26.7475 130.195 20.3512ZM138.022 21.9443H136.497C136.2 21.9443 135.938 22.1383 135.851 22.4221L133.98 28.5336C133.811 29.0865 134.37 29.5827 134.899 29.3496L136.657 28.5751C136.836 28.496 136.973 28.3427 137.03 28.1552L138.668 22.8182C138.801 22.3838 138.477 21.9443 138.022 21.9443Z" fill="#010101"/>
<path d="M143.002 42.4255C142.424 42.4255 141.959 42.2212 141.607 41.8113C141.256 41.4022 141.155 40.9539 141.306 40.4668L142.72 35.7654C142.845 35.3507 143.322 35.1589 143.699 35.3717L147.849 37.7143C148.121 37.8682 148.253 38.1895 148.165 38.4902L148.074 38.8067C147.949 39.2388 148.273 39.6701 148.723 39.6701H150.261C150.559 39.6701 150.822 39.4752 150.908 39.1904L152.76 33.0727C152.891 32.639 152.566 32.2015 152.113 32.2015H144.705C144.251 32.2015 143.926 31.7627 144.059 31.3288L147.41 20.3512C147.51 19.9976 147.717 19.7154 148.031 19.5047C148.345 19.2948 148.715 19.1895 149.143 19.1895H162.323C162.777 19.1895 163.101 19.627 162.97 20.0607L161.229 25.8143C161.1 26.2399 160.602 26.4269 160.225 26.192L156.143 23.6494C155.882 23.4862 155.764 23.1664 155.857 22.8721L155.872 22.8242C156.01 22.3888 155.685 21.9448 155.228 21.9448H153.711C153.414 21.9448 153.152 22.1383 153.065 22.4217L151.183 28.5393C151.049 28.9738 151.374 29.4135 151.828 29.4135H159.232C159.686 29.4135 160.011 29.8519 159.878 30.2862L156.997 39.7314C156.938 39.9242 156.969 40.1332 157.08 40.3014L157.793 41.3774C158.09 41.8263 157.768 42.4259 157.229 42.4259H143.002V42.4255Z" fill="#010101"/>
<path d="M46.7405 19.1892H59.9577C60.4112 19.1892 60.736 19.6275 60.604 20.0614L59.8898 22.4093L55.0602 38.2839C55.0159 38.4295 54.9239 38.5558 54.7988 38.6425L49.514 42.3053C49.401 42.3838 49.2666 42.4257 49.1291 42.4257H40.5993C40.0218 42.4257 39.5574 42.2215 39.2051 41.8116C38.8536 41.4024 38.7531 40.9541 38.9037 40.467L45.0073 20.3512C45.1074 19.9976 45.3147 19.7154 45.629 19.5047C45.9429 19.2945 46.3132 19.1892 46.7405 19.1892ZM52.837 21.9443H51.3101C51.0127 21.9443 50.7503 22.1388 50.6638 22.4233L45.6867 38.7981C45.5549 39.2321 45.8795 39.6701 46.333 39.6701H47.8596C48.157 39.6701 48.4194 39.4756 48.5059 39.1911L53.483 22.8163C53.6153 22.3823 53.2905 21.9443 52.837 21.9443Z" fill="#1E1E1E"/>
<path d="M57.8922 42.4255C57.3148 42.4255 56.8503 42.2212 56.4981 41.8113C56.1466 41.4022 56.046 40.9539 56.1966 40.4668C57.076 37.5239 57.7357 35.3274 58.1746 33.8777C58.6138 32.4286 58.8529 31.6593 58.8905 31.5706C58.9282 31.4825 58.9594 31.3881 58.9846 31.2885C59.0094 31.1889 59.0535 31.0344 59.1164 30.8238C59.1789 30.6138 59.4744 29.6453 60.0018 27.9192C60.5291 26.1932 61.2951 23.6704 62.3 20.351C62.4001 19.9973 62.6074 19.7152 62.9218 19.5045C63.2354 19.2945 63.606 19.1892 64.0333 19.1892H77.2476C77.702 19.1892 78.0269 19.6289 77.8932 20.0633L74.6202 30.7077L71.8865 39.7314C71.8282 39.9239 71.8587 40.1324 71.9697 40.3002L72.6827 41.3769C72.9802 41.8259 72.6582 42.4255 72.1196 42.4255H57.8922ZM63.6253 39.6703H65.1531C65.4505 39.6703 65.7129 39.4759 65.7994 39.1913L70.7765 22.8165C70.9083 22.3826 70.5837 21.9446 70.1302 21.9446H68.6029C68.3057 21.9446 68.0435 22.1388 67.9568 22.4228L65.4279 30.708L62.9787 38.7993C62.8474 39.2328 63.172 39.6703 63.6253 39.6703Z" fill="#1E1E1E"/>
<path d="M80.8391 20.3512C80.9392 19.9976 81.1465 19.7154 81.4608 19.5047C81.7745 19.2948 82.145 19.1895 82.5723 19.1895H95.7866C96.2411 19.1895 96.5659 19.6291 96.4322 20.0636L93.4324 29.8203C93.2975 30.2585 92.7744 30.4382 92.3988 30.1749L88.4 27.3719C88.16 27.2036 88.0559 26.9 88.1421 26.6202L89.3113 22.8187C89.445 22.3842 89.1201 21.9446 88.6657 21.9446H87.1414C86.8443 21.9446 86.5821 22.1388 86.4954 22.4229L83.9664 30.708L82.2709 36.2513L81.5118 38.8022C81.3829 39.2352 81.7075 39.6704 82.1593 39.6704H83.6886C83.9874 39.6704 84.2507 39.474 84.3361 39.1875L85.066 36.7341C85.1513 36.4477 85.4146 36.2513 85.7135 36.2513H90.5862C91.0409 36.2513 91.3657 36.6915 91.2318 37.1261L90.428 39.7302C90.3682 39.9237 90.3984 40.1336 90.5102 40.3024L91.222 41.3771C91.5195 41.8261 91.1975 42.4257 90.6589 42.4257H76.4313C75.8539 42.4257 75.3894 42.2215 75.0372 41.8116C74.6857 41.4024 74.5851 40.9541 74.7357 40.467L80.8391 20.3512Z" fill="#1E1E1E"/>
<path d="M99.5954 21.9443H97.8412C97.3867 21.9443 97.0619 21.5046 97.1954 21.0702L97.4165 20.351C97.5166 19.9973 97.7239 19.7152 98.0383 19.5045C98.3519 19.2945 98.7222 19.1892 99.1498 19.1892H110.286C110.742 19.1892 111.067 19.6322 110.93 20.0674L110.489 21.4715C110.4 21.753 110.139 21.9443 109.844 21.9443H107.299C107.002 21.9443 106.739 22.1388 106.653 22.4233L101.389 39.7354C101.331 39.9256 101.36 40.1317 101.468 40.2985L102.168 41.3831C102.459 41.8325 102.136 42.4252 101.601 42.4252H96.5877C96.0095 42.4252 95.5451 42.221 95.1936 41.8111C94.8413 41.4019 94.7415 40.9536 94.8921 40.4665L100.242 22.8156C100.373 22.3821 100.049 21.9443 99.5954 21.9443Z" fill="#1E1E1E"/>
<path d="M107.248 42.4255C106.67 42.4255 106.206 42.2212 105.854 41.8113C105.502 41.4022 105.402 40.9539 105.552 40.4668C106.431 37.5239 107.091 35.3274 107.53 33.8777C107.969 32.4286 108.208 31.6593 108.246 31.5706C108.284 31.4825 108.315 31.3881 108.34 31.2885C108.365 31.1889 108.409 31.0344 108.472 30.8238C108.534 30.6138 108.83 29.6453 109.357 27.9192C109.885 26.1932 110.651 23.6704 111.655 20.351C111.756 19.9973 111.963 19.7152 112.277 19.5045C112.591 19.2945 112.961 19.1892 113.389 19.1892H126.603C127.058 19.1892 127.382 19.6289 127.249 20.0633L123.976 30.7077L121.242 39.7314C121.184 39.9239 121.214 40.1324 121.325 40.3002L122.038 41.3769C122.336 41.8259 122.014 42.4255 121.475 42.4255H107.248ZM112.981 39.6703H114.508C114.806 39.6703 115.068 39.4759 115.155 39.1913L120.132 22.8165C120.264 22.3826 119.939 21.9446 119.485 21.9446H117.958C117.661 21.9446 117.399 22.1388 117.312 22.4228L114.783 30.708L112.334 38.7993C112.203 39.2328 112.527 39.6703 112.981 39.6703Z" fill="#1E1E1E"/>
<path d="M130.195 20.3512C130.295 19.9976 130.502 19.7154 130.817 19.5047C131.13 19.2948 131.501 19.1895 131.928 19.1895H145.111C145.563 19.1895 145.888 19.626 145.757 20.0598L143.321 28.1528C143.264 28.342 143.127 28.4967 142.946 28.5763L139.074 30.2823C138.573 30.503 138.529 31.1972 138.998 31.4794L141.348 32.8928C141.613 33.0525 141.736 33.3725 141.646 33.6687L139.248 41.5273C139.113 41.9689 138.585 42.1481 138.209 41.88L134.207 39.0231C133.971 38.8546 133.869 38.5543 133.953 38.2767L135.356 33.6637C135.445 33.3697 135.325 33.0525 135.063 32.8916L134.569 32.5882C134.378 32.4712 134.142 32.456 133.938 32.548L132.849 33.0384C132.671 33.1187 132.536 33.2722 132.48 33.4593L130.587 39.7366C130.53 39.9265 130.559 40.1317 130.666 40.2983L131.368 41.3836C131.658 41.833 131.335 42.4257 130.8 42.4257H125.787C125.209 42.4257 124.745 42.2215 124.393 41.8116C124.041 41.4024 123.941 40.9432 124.091 40.4339C126.045 33.9743 127.061 30.6055 127.138 30.3281C127.141 30.3167 127.144 30.3078 127.148 30.2966C127.23 30.0626 128.246 26.7475 130.195 20.3512ZM138.022 21.9443H136.497C136.2 21.9443 135.938 22.1383 135.851 22.4221L133.98 28.5336C133.811 29.0865 134.37 29.5827 134.899 29.3496L136.657 28.5751C136.836 28.496 136.973 28.3427 137.03 28.1552L138.668 22.8182C138.801 22.3838 138.477 21.9443 138.022 21.9443Z" fill="#1E1E1E"/>
<path d="M143.002 42.4255C142.424 42.4255 141.959 42.2212 141.607 41.8113C141.256 41.4022 141.155 40.9539 141.306 40.4668L142.72 35.7654C142.845 35.3507 143.322 35.1589 143.699 35.3717L147.849 37.7143C148.121 37.8682 148.253 38.1895 148.165 38.4902L148.074 38.8067C147.949 39.2388 148.273 39.6701 148.723 39.6701H150.261C150.559 39.6701 150.822 39.4752 150.908 39.1904L152.76 33.0727C152.891 32.639 152.566 32.2015 152.113 32.2015H144.705C144.251 32.2015 143.926 31.7627 144.059 31.3288L147.41 20.3512C147.51 19.9976 147.717 19.7154 148.031 19.5047C148.345 19.2948 148.715 19.1895 149.143 19.1895H162.323C162.777 19.1895 163.101 19.627 162.97 20.0607L161.229 25.8143C161.1 26.2399 160.602 26.4269 160.225 26.192L156.143 23.6494C155.882 23.4862 155.764 23.1664 155.857 22.8721L155.872 22.8242C156.01 22.3888 155.685 21.9448 155.228 21.9448H153.711C153.414 21.9448 153.152 22.1383 153.065 22.4217L151.183 28.5393C151.049 28.9738 151.374 29.4135 151.828 29.4135H159.232C159.686 29.4135 160.011 29.8519 159.878 30.2862L156.997 39.7314C156.938 39.9242 156.969 40.1332 157.08 40.3014L157.793 41.3774C158.09 41.8263 157.768 42.4259 157.229 42.4259H143.002V42.4255Z" fill="#1E1E1E"/>
<path d="M41.5726 31.5812C41.5681 31.555 41.5619 31.5281 41.5548 31.5024C37.9496 18.5976 22.2199 24.1886 20.9766 24.6407C19.7322 25.0932 20.1847 24.6407 20.1847 24.6407L29.5704 15.2551C29.6824 15.143 29.7515 14.9951 29.7655 14.8373L30.103 11.0403C30.1466 10.5498 29.6676 10.179 29.2038 10.3439L3.15267 19.6071C2.80211 19.7317 2.61838 20.1166 2.74182 20.4676L3.57996 22.8507C3.70388 23.203 4.09018 23.3879 4.44217 23.2635L8.10119 21.9709C8.76989 21.7347 9.30418 22.5567 8.81708 23.0719L5.13065 26.9711C4.96169 27.1499 4.90306 27.4065 4.97813 27.6408L5.5751 29.5096C5.66351 29.7865 5.91922 29.9755 6.20996 29.9796C7.09242 29.9919 8.88142 30.0453 9.02369 30.2777C9.10376 30.4085 8.51204 30.7279 8.38669 30.7936C8.37072 30.802 8.35571 30.8105 8.34046 30.8203L1.74306 34.9641C1.59912 35.0546 1.4945 35.1959 1.45018 35.3601L0.024603 40.6432C-0.132682 41.2262 0.495505 41.7071 1.01717 41.4027L1.63225 41.0441C7.40175 37.3109 12.7185 38.838 20.5808 41.7795C27.6899 44.4391 30.4519 43.9076 30.9159 43.7813C30.969 43.7668 31.021 43.7594 31.076 43.7584C32.1961 43.7399 43.6381 43.267 41.5726 31.5812ZM23.3352 34.8866C20.9969 34.6161 18.6483 33.4158 17.1787 32.5257C16.6208 32.1877 16.8226 31.3298 17.4728 31.2762C19.262 31.1289 22.1227 31.1487 24.8397 32.2607C29.3008 34.0866 25.771 35.1685 23.3352 34.8866Z" fill="#010101"/>
<path d="M5.0824 11.6033L6.88045 15.1704C7.03368 15.4742 7.38877 15.6167 7.70953 15.503L17.4112 12.063C17.7446 11.9448 17.9302 11.5897 17.837 11.2485L16.7684 7.33207C16.6054 6.73511 15.7923 6.65313 15.5135 7.20577L14.5085 9.19852C14.3146 9.58316 13.8151 9.6904 13.4802 9.41944L10.1985 6.76251C9.77402 6.41911 9.13868 6.69459 9.0996 7.23913L8.84199 10.8255C8.80981 11.2744 8.35583 11.5669 7.93378 11.4105L5.91982 10.6653C5.34454 10.4528 4.80619 11.0554 5.0824 11.6033Z" fill="#010101"/>
<path d="M41.5726 31.5812C41.5681 31.555 41.5619 31.5281 41.5548 31.5024C37.9496 18.5976 22.2199 24.1886 20.9766 24.6407C19.7322 25.0932 20.1847 24.6407 20.1847 24.6407L29.5704 15.2551C29.6824 15.143 29.7515 14.9951 29.7655 14.8373L30.103 11.0403C30.1466 10.5498 29.6676 10.179 29.2038 10.3439L3.15267 19.6071C2.80211 19.7317 2.61838 20.1166 2.74182 20.4676L3.57996 22.8507C3.70388 23.203 4.09018 23.3879 4.44217 23.2635L8.10119 21.9709C8.76989 21.7347 9.30418 22.5567 8.81708 23.0719L5.13065 26.9711C4.96169 27.1499 4.90306 27.4065 4.97813 27.6408L5.5751 29.5096C5.66351 29.7865 5.91922 29.9755 6.20996 29.9796C7.09242 29.9919 8.88142 30.0453 9.02369 30.2777C9.10376 30.4085 8.51204 30.7279 8.38669 30.7936C8.37072 30.802 8.35571 30.8105 8.34046 30.8203L1.74306 34.9641C1.59912 35.0546 1.4945 35.1959 1.45018 35.3601L0.024603 40.6432C-0.132682 41.2262 0.495505 41.7071 1.01717 41.4027L1.63225 41.0441C7.40175 37.3109 12.7185 38.838 20.5808 41.7795C27.6899 44.4391 30.4519 43.9076 30.9159 43.7813C30.969 43.7668 31.021 43.7594 31.076 43.7584C32.1961 43.7399 43.6381 43.267 41.5726 31.5812ZM23.3352 34.8866C20.9969 34.6161 18.6483 33.4158 17.1787 32.5257C16.6208 32.1877 16.8226 31.3298 17.4728 31.2762C19.262 31.1289 22.1227 31.1487 24.8397 32.2607C29.3008 34.0866 25.771 35.1685 23.3352 34.8866Z" fill="white"/>
<path d="M5.0824 11.6033L6.88045 15.1704C7.03368 15.4742 7.38877 15.6167 7.70953 15.503L17.4112 12.063C17.7446 11.9448 17.9302 11.5897 17.837 11.2485L16.7684 7.33207C16.6054 6.73511 15.7923 6.65313 15.5135 7.20577L14.5085 9.19852C14.3146 9.58316 13.8151 9.6904 13.4802 9.41944L10.1985 6.76251C9.77402 6.41911 9.13868 6.69459 9.0996 7.23913L8.84199 10.8255C8.80981 11.2744 8.35583 11.5669 7.93378 11.4105L5.91982 10.6653C5.34454 10.4528 4.80619 11.0554 5.0824 11.6033Z" fill="white"/>
<path d="M41.5726 31.5812C41.5681 31.555 41.5619 31.5281 41.5548 31.5024C37.9496 18.5976 22.2199 24.1886 20.9766 24.6407C19.7322 25.0932 20.1847 24.6407 20.1847 24.6407L29.5704 15.2551C29.6824 15.143 29.7515 14.9951 29.7655 14.8373L30.103 11.0403C30.1466 10.5498 29.6676 10.179 29.2038 10.3439L3.15267 19.6071C2.80211 19.7317 2.61838 20.1166 2.74182 20.4676L3.57996 22.8507C3.70388 23.203 4.09018 23.3879 4.44217 23.2635L8.10119 21.9709C8.76989 21.7347 9.30418 22.5567 8.81708 23.0719L5.13065 26.9711C4.96169 27.1499 4.90306 27.4065 4.97813 27.6408L5.5751 29.5096C5.66351 29.7865 5.91922 29.9755 6.20996 29.9796C7.09242 29.9919 8.88142 30.0453 9.02369 30.2777C9.10376 30.4085 8.51204 30.7279 8.38669 30.7936C8.37072 30.802 8.35571 30.8105 8.34046 30.8203L1.74306 34.9641C1.59912 35.0546 1.4945 35.1959 1.45018 35.3601L0.024603 40.6432C-0.132682 41.2262 0.495505 41.7071 1.01717 41.4027L1.63225 41.0441C7.40175 37.3109 12.7185 38.838 20.5808 41.7795C27.6899 44.4391 30.4519 43.9076 30.9159 43.7813C30.969 43.7668 31.021 43.7594 31.076 43.7584C32.1961 43.7399 43.6381 43.267 41.5726 31.5812ZM23.3352 34.8866C20.9969 34.6161 18.6483 33.4158 17.1787 32.5257C16.6208 32.1877 16.8226 31.3298 17.4728 31.2762C19.262 31.1289 22.1227 31.1487 24.8397 32.2607C29.3008 34.0866 25.771 35.1685 23.3352 34.8866Z" fill="#1E1E1E"/>
<path d="M5.0824 11.6033L6.88045 15.1704C7.03368 15.4742 7.38877 15.6167 7.70953 15.503L17.4112 12.063C17.7446 11.9448 17.9302 11.5897 17.837 11.2485L16.7684 7.33207C16.6054 6.73511 15.7923 6.65313 15.5135 7.20577L14.5085 9.19852C14.3146 9.58316 13.8151 9.6904 13.4802 9.41944L10.1985 6.76251C9.77402 6.41911 9.13868 6.69459 9.0996 7.23913L8.84199 10.8255C8.80981 11.2744 8.35583 11.5669 7.93378 11.4105L5.91982 10.6653C5.34454 10.4528 4.80619 11.0554 5.0824 11.6033Z" fill="#1E1E1E"/>
</g>
<defs>
<clipPath id="clip0_1502_17518">
<rect width="163" height="43.909" fill="white"/>
</clipPath>
</defs>
</svg>
